<?xml version="1.0" standalone="no"?>
<!DOCTYPE svg PUBLIC "-//W3C//DTD SVG 1.1//EN" "http://www.w3.org/Graphics/SVG/1.1/DTD/svg11.dtd" >
<!--
2013-9-30: Created.
-->
<svg>
<metadata>
Created by iconfont
</metadata>
<defs>

<font id="iconfont" horiz-adv-x="1024" >
  <font-face
    font-family="iconfont"
    font-weight="500"
    font-stretch="normal"
    units-per-em="1024"
    ascent="896"
    descent="-128"
  />
    <missing-glyph />
    
    <glyph glyph-name="x" unicode="x" horiz-adv-x="1001"
d="M281 543q-27 -1 -53 -1h-83q-18 0 -36.5 -6t-32.5 -18.5t-23 -32t-9 -45.5v-76h912v41q0 16 -0.5 30t-0.5 18q0 13 -5 29t-17 29.5t-31.5 22.5t-49.5 9h-133v-97h-438v97zM955 310v-52q0 -23 0.5 -52t0.5 -58t-10.5 -47.5t-26 -30t-33 -16t-31.5 -4.5q-14 -1 -29.5 -0.5
t-29.5 0.5h-32l-45 128h-439l-44 -128h-29h-34q-20 0 -45 1q-25 0 -41 9.5t-25.5 23t-13.5 29.5t-4 30v167h911zM163 247q-12 0 -21 -8.5t-9 -21.5t9 -21.5t21 -8.5q13 0 22 8.5t9 21.5t-9 21.5t-22 8.5zM316 123q-8 -26 -14 -48q-5 -19 -10.5 -37t-7.5 -25t-3 -15t1 -14.5
t9.5 -10.5t21.5 -4h37h67h81h80h64h36q23 0 34 12t2 38q-5 13 -9.5 30.5t-9.5 34.5q-5 19 -11 39h-368zM336 498v228q0 11 2.5 23t10 21.5t20.5 15.5t34 6h188q31 0 51.5 -14.5t20.5 -52.5v-227h-327z" />
    

    
    <glyph glyph-name="erji" unicode="&#59275;" d="M188.73856 384.1792c0.4864 175.66208 143.01696 317.92128 318.79168 317.92128s318.30528-142.2592 318.79168-317.92128h53.02272c-0.4864 204.94336-166.75328 370.93888-371.8144 370.93888s-371.328-165.99552-371.8144-370.93888h53.02272zM74.94144 161.12128a17.92 17.92 0 1 0-35.84 0v204.7744a17.92 17.92 0 1 0 35.84 0v-204.7744zM284.83584 163.68128c0-67.85536-45.83936-122.86464-102.38464-122.86464h-12.8c-56.54528 0-102.38464 55.00928-102.38464 122.86464v189.4144c0 67.85536 45.83936 122.86464 102.38464 122.86464h12.8c56.54528 0 102.38464-55.00928 102.38464-122.86464v-189.4144zM330.91072 171.36128a28.15488 28.15488 0 0 0-56.30976 0v194.5344a28.15488 28.15488 0 0 0 56.30976 0v-194.5344zM940.11392 161.12128a17.92 17.92 0 1 1 35.84 0v204.7744a17.92 17.92 0 1 1-35.84 0v-204.7744zM730.21952 163.68128c0-67.85536 45.83936-122.86464 102.38464-122.86464h12.8c56.54528 0 102.38464 55.00928 102.38464 122.86464v189.4144c0 67.85536-45.83936 122.86464-102.38464 122.86464h-12.8c-56.54528 0-102.38464-55.00928-102.38464-122.86464v-189.4144zM684.14464 171.36128a28.15488 28.15488 0 0 1 56.30976 0v194.5344a28.15488 28.15488 0 0 1-56.30976 0v-194.5344zM316.928 714.24l39.10144-67.72736c40.70912 24.48896 100.87424 46.38208 149.86752 46.38208 49.26464 0 111.14496-22.8864 152.01792-47.63136l37.61152 68.54656c-55.69024 36.6592-120.45312 57.76384-189.62944 57.76384-68.90496 0-133.4272-20.9408-188.96896-57.33376z"  horiz-adv-x="1024" />

    
    <glyph glyph-name="dangan" unicode="&#59275;" d="M352.64512 582.41024V736.14336c0 1.024-0.20992 1.98144-0.24064 2.9952V746.0864h-0.5632c-3.90144 33.9456-27.06944 60.12928-55.35232 60.12928H98.50368c-28.28288 0-51.45088-26.18368-55.35232-60.12928h-0.80384v-228.1984h0.24064v-62.65856c-0.03584-1.10592-0.24064-2.14016-0.24064-3.25632V19.16416h0.80384c3.90144-33.9456 27.06432-60.12416 55.3472-60.12928H296.48896c28.28288 0 51.45088 26.18368 55.35232 60.12928h0.5632v5.22752h0.24064V522.10176h-0.24064V579.40992c0.03584 1.01888 0.24064 1.9712 0.24064 3.00032zM197.49888 133.20192m-84.02432 0a84.02432 84.02432 0 1 1 168.04864 0 84.02432 84.02432 0 1 1-168.04864 0ZM120.61184 703.45216h153.77408v-390.84544H120.61184zM197.49888 133.20192m-39.17312 0a39.17312 39.17312 0 1 1 78.34624 0 39.17312 39.17312 0 1 1-78.34624 0ZM662.96832 582.41024V736.14336c0 1.024-0.20992 1.98144-0.24064 2.9952V746.0864h-0.5632c-3.90144 33.9456-27.06944 60.12928-55.35232 60.12928H408.82688c-28.28288 0-51.45088-26.18368-55.35232-60.12928h-0.80384v-228.1984h0.24064v-62.65856c-0.03584-1.10592-0.24064-2.14016-0.24064-3.25632V19.16416h0.80384c3.90144-33.9456 27.06432-60.12416 55.3472-60.12928H606.81216c28.28288 0 51.45088 26.18368 55.35232 60.12928h0.5632v5.22752h0.24064V522.10176h-0.24064V579.40992c0.03584 1.01888 0.24064 1.9712 0.24064 3.00032zM507.82208 133.20192m-84.02432 0a84.02432 84.02432 0 1 1 168.04864 0 84.02432 84.02432 0 1 1-168.04864 0ZM430.93504 703.45216h153.77408v-390.84544H430.93504zM507.82208 133.20192m-39.17312 0a39.17312 39.17312 0 1 1 78.34624 0 39.17312 39.17312 0 1 1-78.34624 0ZM976.92672 582.41024V736.14336c0 1.024-0.20992 1.98144-0.24064 2.9952V746.0864h-0.5632c-3.90144 33.9456-27.06944 60.12928-55.35232 60.12928h-197.98528c-28.28288 0-51.45088-26.18368-55.35232-60.12928h-0.80384v-228.1984h0.24064v-62.65856c-0.03584-1.10592-0.24064-2.14016-0.24064-3.25632V19.16416h0.80384c3.90144-33.9456 27.06432-60.12416 55.3472-60.12928H920.77056c28.28288 0 51.45088 26.18368 55.35232 60.12928h0.5632v5.22752h0.24064V522.10176h-0.24064V579.40992c0.03584 1.01888 0.24064 1.9712 0.24064 3.00032zM821.78048 133.20192m-84.02432 0a84.02432 84.02432 0 1 1 168.04864 0 84.02432 84.02432 0 1 1-168.04864 0ZM744.89344 703.45216h153.77408v-390.84544h-153.77408zM821.78048 133.20192m-39.17312 0a39.17312 39.17312 0 1 1 78.34624 0 39.17312 39.17312 0 1 1-78.34624 0Z"  horiz-adv-x="1024" />

    
    <glyph glyph-name="hongben" unicode="&#59276;" d="M822.144 852.0704v0.9984H162.816v-937.83552h470.28224c1.00864-0.04096 1.95584-0.30208 2.9696-0.30208h176.20992c1.01888 0 1.96608 0.256 2.9696 0.30208h6.89152v0.69632c33.664 4.82816 59.63264 33.49504 59.63264 68.49536V783.57504c0 35.00032-25.96352 63.67232-59.62752 68.49536zM142.22848 734.38208h201.728v-86.51264h-201.728zM142.22848 529.63328h201.728v-86.51264h-201.728zM142.22848 324.87936h201.728v-86.51264h-201.728zM142.22848 120.13056h201.728v-86.51264h-201.728zM741.28896 865.62816h42.25024v-963.26144h-42.25024z"  horiz-adv-x="1024" />

    
    <glyph glyph-name="biaoqian" unicode="&#59275;" d="M579.99872 760.22784h-1.01376v-231.20896h391.9872V591.35488c0.04608 1.02912 0.3072 1.9968 0.3072 3.03616V750.1568c0 1.03936-0.26112 2.00704-0.3072 3.03616v7.04h-0.71168c-4.93056 34.39616-34.22208 60.92288-69.98016 60.92288h-250.30144c-35.75808-0.00512-65.0496-26.53184-69.98016-60.928zM970.26048 29.01504h1.01376V533.28896h-391.9872v-67.75296c-0.04608-1.11616-0.3072-2.17088-0.3072-3.29728v-422.272c0-1.13152 0.26112-2.18112 0.3072-3.29728v-7.64928h0.71168c4.93056-37.38624 34.22208-66.21696 69.98016-66.21696h250.30144c35.75808-0.00512 65.0496 28.8256 69.98016 66.21184zM579.99872 23.71584h-1.01376v226.3552h391.9872v-62.33088c0.04608-1.02912 0.3072-1.9968 0.3072-3.03616V33.792c0-1.03936-0.26112-2.00704-0.3072-3.03616v-7.04h-0.71168c-4.93056-34.39616-34.22208-60.92288-69.98016-60.92288h-250.30144c-35.75808 0.00512-65.0496 26.53184-69.98016 60.92288zM313.2928 760.22784h-1.01376v-231.20896h391.9872V591.35488c0.04608 1.02912 0.3072 1.9968 0.3072 3.03616V750.1568c0 1.03936-0.26112 2.00704-0.3072 3.03616v7.04h-0.71168c-4.93056 34.39616-34.22208 60.92288-69.98016 60.92288H383.27296c-35.75808-0.00512-65.0496-26.53184-69.98016-60.928zM703.55456 29.01504h1.01376V533.28896h-391.9872v-67.75296c-0.04608-1.11616-0.3072-2.17088-0.3072-3.29728v-422.272c0-1.13152 0.26112-2.18112 0.3072-3.29728v-7.64928h0.71168c4.93056-37.38624 34.22208-66.21696 69.98016-66.21696h250.30144c35.75808-0.00512 65.0496 28.8256 69.98016 66.21184zM313.2928 23.71584h-1.01376v226.3552h391.9872v-62.33088c0.04608-1.02912 0.3072-1.9968 0.3072-3.03616V33.792c0-1.03936-0.26112-2.00704-0.3072-3.03616v-7.04h-0.71168c-4.93056-34.39616-34.22208-60.92288-69.98016-60.92288H383.27296c-35.75808 0.00512-65.0496 26.53184-69.98016 60.92288zM48.01536 760.22784h-1.01888v-231.20896h391.9872V591.35488c0.04608 1.02912 0.3072 1.9968 0.3072 3.03616V750.1568c0 1.03936-0.26112 2.00704-0.3072 3.03616v7.04H438.272c-4.93056 34.39616-34.22208 60.92288-69.98016 60.92288H117.99552c-35.75808-0.00512-65.0496-26.53184-69.98016-60.928zM438.27712 29.01504h1.01376V533.28896H47.30368v-67.75296c-0.04608-1.11616-0.3072-2.17088-0.3072-3.29728v-422.272c0-1.13152 0.26112-2.18112 0.3072-3.29728v-7.64928h0.71168c4.93056-37.38624 34.22208-66.21696 69.98016-66.21696h250.30144c35.75808-0.00512 65.0496 28.8256 69.98016 66.21184zM48.01536 23.71584h-1.01888v226.3552h391.9872v-62.33088c0.04608-1.02912 0.3072-1.9968 0.3072-3.03616V33.792c0-1.03936-0.26112-2.00704-0.3072-3.03616v-7.04H438.272c-4.93056-34.39616-34.22208-60.92288-69.98016-60.92288H117.99552c-35.75808 0.00512-65.0496 26.53184-69.98016 60.92288zM246.74816 723.26144m-41.35936 0a41.35936 41.35936 0 1 1 82.71872 0 41.35936 41.35936 0 1 1-82.71872 0ZM507.7504 723.26144m-41.35936 0a41.35936 41.35936 0 1 1 82.71872 0 41.35936 41.35936 0 1 1-82.71872 0ZM764.47232 723.26144m-41.35936 0a41.35936 41.35936 0 1 1 82.71872 0 41.35936 41.35936 0 1 1-82.71872 0Z"  horiz-adv-x="1024" />

    
    <glyph glyph-name="gongwenbao" unicode="&#59276;" d="M976.01536 444.41088V618.72128c0 1.00864-0.256 1.9456-0.29696 2.93888v6.81472h-0.68608c-4.77184 33.3056-33.13664 58.98752-67.75808 58.98752H116.72576c-34.62144 0-62.98624-25.68704-67.7632-58.98752h-0.97792v-247.36256h0.29696v-49.31072c-0.04096-0.9984-0.29696-1.93536-0.29696-2.93888v-309.10976c0-1.00864 0.256-1.9456 0.29696-2.93888v-6.81472h0.68608c4.77184-33.3056 33.13664-58.98752 67.75808-58.98752h790.54336c34.62144 0 62.98624 25.68704 67.7632 58.98752h0.98304V392.16128h-0.29696v49.31072c0.04608 0.99328 0.29696 1.93024 0.29696 2.93888zM976.01536 444.41088V618.72128c0 1.00864-0.256 1.9456-0.29696 2.93888v6.81472h-0.68608c-4.77184 33.3056-33.13664 58.98752-67.75808 58.98752H116.72576c-34.62144 0-62.98624-25.68704-67.7632-58.98752h-0.97792v-247.36256h0.29696v-49.31072c-0.04096-0.9984-0.29696-1.93536-0.29696-2.93888v-82.816c0-1.00864 0.256-1.9456 0.29696-2.93888v-6.81472h0.68608c4.77184-33.3056 33.13664-58.98752 67.75808-58.98752h790.54336c34.62144 0 62.98624 25.68704 67.7632 58.98752h0.98304V392.16128h-0.29696v49.31072c0.04608 0.99328 0.29696 1.93024 0.29696 2.93888zM566.4768 186.82368c0-30.08512-24.39168-54.4768-54.4768-54.4768s-54.4768 24.39168-54.4768 54.4768 24.39168 54.4768 54.4768 54.4768 54.4768-24.39168 54.4768-54.4768zM239.61088 119.77216a16.76288 16.76288 0 0 0-33.52576 0V237.1072a16.76288 16.76288 0 0 0 33.52576 0v-117.33504zM817.91488 119.77216a16.76288 16.76288 0 0 0-33.52576 0V237.1072a16.76288 16.76288 0 0 0 33.52576 0v-117.33504zM682.6752 727.58784V791.7056c0 0.36864-0.09216 0.7168-0.10752 1.08032v2.5088h-0.25088c-1.75616 12.24704-12.1856 21.69856-24.92416 21.69856H366.61248c-12.73344 0-23.168-9.4464-24.92416-21.69856h-0.36352V704.3072h0.10752v-18.13504c-0.01536-0.36352-0.10752-0.71168-0.10752-1.08032v-30.464c0-0.36864 0.09216-0.7168 0.10752-1.08032v-2.5088h0.25088c1.75616-12.24704 12.19072-21.69856 24.92416-21.69856h17.14688v7.86432c0 0.37888 0.07168 0.72704 0.08192 1.1008V656.7936h-0.08192V749.5424h0.27136c1.32096 12.48768 9.15968 22.1184 18.72896 22.1184h218.49088c9.56928 0 17.408-9.63072 18.72896-22.1184h0.18944v-2.55488c0.01024-0.37376 0.08192-0.72192 0.08192-1.1008v-65.3568c0-0.37888-0.07168-0.72704-0.08192-1.1008v-18.48832h0.08192V629.34528h17.14688c12.73344 0 23.168 9.4464 24.92416 21.69856h0.36352V708.3776h-0.10752v18.13504c0.01024 0.36352 0.1024 0.70656 0.1024 1.0752z"  horiz-adv-x="1024" />

    
    <glyph glyph-name="kafei" unicode="&#59277;" d="M512 384m-459.43808 0a459.43808 459.43808 0 1 1 918.87616 0 459.43808 459.43808 0 1 1-918.87616 0ZM512 704.41984c-157.9264 0-288.1792-119.0912-309.6064-273.7408H134.00064a44.72832 44.72832 0 0 1-44.72832-44.72832 44.72832 44.72832 0 0 1 44.72832-44.72832H202.3936C223.8208 186.5728 354.0736 67.4816 512 67.4816c172.89216 0 313.05216 142.58176 313.05216 318.46912S684.89216 704.41984 512 704.41984zM512 385.95072m-237.14304 0a237.14304 237.14304 0 1 1 474.28608 0 237.14304 237.14304 0 1 1-474.28608 0ZM678.21568 554.496c-0.61952 0.59392-1.30048 1.0752-1.93024 1.65888l-327.09632-343.09632c0.6144-0.59904 1.13152-1.2544 1.75104-1.84832 94.7968-90.37312 244.90496-86.78912 335.27808 8.00768 90.37824 94.7968 86.79424 244.90496-8.00256 335.27808z"  horiz-adv-x="1024" />

    
    <glyph glyph-name="duorou" unicode="&#59277;" d="M512 384m-482.47808 0a482.47808 482.47808 0 1 1 964.95616 0 482.47808 482.47808 0 1 1-964.95616 0ZM512 384m-418.42176 0a418.42176 418.42176 0 1 1 836.84352 0 418.42176 418.42176 0 1 1-836.84352 0ZM713.66656 350.848a231.59296 231.59296 0 0 1-32.73216 22.18496 236.00128 236.00128 0 0 1 21.01248 12.80512c68.3776 47.15008 99.51232 120.61184 69.53472 164.08064-29.97248 43.4688-109.70624 40.48384-178.08384-6.67136a229.53984 229.53984 0 0 1-36.14208-30.86848 231.2448 231.2448 0 0 1-9.4208 41.5744c-25.74336 78.97088-87.30624 129.72032-137.50784 113.3568-50.2016-16.36352-70.03136-93.6448-44.29312-172.61568a230.77888 230.77888 0 0 1 17.88416-41.0624 234.76736 234.76736 0 0 1-24.59648 1.1776c-83.05664-0.71168-150.02112-44.09344-149.56544-96.89088 0.45568-52.80256 68.15232-95.0272 151.20896-94.3104a235.59168 235.59168 0 0 1 30.52544 2.24256c-1.20832-3.48672-2.42688-6.96832-3.48672-10.5728-23.4752-79.67232-1.44896-156.35968 49.19808-171.28448 50.64704-14.9248 110.74048 37.56544 134.21568 117.23776a237.7216 237.7216 0 0 1 4.2752 16.99328 235.5456 235.5456 0 0 1 17.37728-15.76448c64.45568-52.38784 143.70816-61.63456 177.00864-20.6592 33.30048 40.97536 8.04352 116.66432-56.41216 169.04704zM635.49952 292.29568a172.63616 172.63616 0 0 1-12.672 26.62912c6.00576-0.18944 12.11392-0.1536 18.35008 0.30208 61.78304 4.49536 109.55264 39.98208 106.69056 79.2576-2.85696 39.27552-55.26016 67.47136-117.0432 62.97088a171.1872 171.1872 0 0 1-34.90304-6.20032 172.06272 172.06272 0 0 1 9.64096 30.29504c13.27104 60.50816-7.14752 116.39808-45.61408 124.83584-38.46656 8.43776-80.4096-33.77152-93.68064-94.27968a172.21632 172.21632 0 0 1-4.00896-33.16224 174.73536 174.73536 0 0 1-15.37536 10.04544c-53.6832 30.91456-113.13152 28.30848-132.78208-5.82144-19.65056-34.12992 7.936-86.85056 61.6192-117.76512a174.16704 174.16704 0 0 1 20.48-10.0864c-2.09408-1.78688-4.19328-3.56352-6.23616-5.48352-45.18912-42.37312-59.98592-100.00896-33.05472-128.73216 26.93632-28.72832 85.4016-17.66912 130.59584 24.704 3.2256 3.02592 6.25664 6.144 9.16992 9.31328a175.8976 175.8976 0 0 1 5.2224-16.70144c21.66784-58.0352 69.13536-93.91616 106.03008-80.13824 36.89472 13.7728 49.23904 71.98208 27.5712 130.01728z"  horiz-adv-x="1024" />

    
    <glyph glyph-name="lanben" unicode="&#59278;" d="M809.22624 842.3168v0.96768H166.59968v-914.08384h458.37312c0.98304-0.04096 1.90464-0.29184 2.89792-0.29184h171.74528c0.99328 0 1.91488 0.25088 2.89792 0.29184h6.71744v0.67584c32.81408 4.70528 58.12224 32.65024 58.12224 66.7648V775.552c-0.00512 34.11456-25.31328 62.05952-58.12736 66.7648zM167.9616 416.71168h698.02496v-299.35104H167.9616zM730.4192 855.53152h41.18016v-938.86464h-41.18016z"  horiz-adv-x="1024" />

    
    <glyph glyph-name="jisuanqi" unicode="&#59277;" d="M47.5904 727.7824h-0.98304v-248.09472h930.48832V540.22144c0.04096 0.9984 0.29696 1.94048 0.29696 2.94912V718.0032c0 1.00864-0.256 1.95072-0.29696 2.94912v6.8352h-0.6912c-4.7872 33.40288-33.23392 59.16672-67.96288 59.16672H115.55328c-34.72384-0.00512-63.17056-25.76896-67.96288-59.17184zM976.4096 40.2176h0.98816V490.76736H46.90432V430.2336c-0.04096-0.9984-0.29696-1.94048-0.29696-2.94912v-377.28256c0-1.00864 0.256-1.95072 0.29696-2.94912v-6.8352h0.6912c4.7872-33.40288 33.23392-59.16672 67.96288-59.16672h792.89344c34.71872 0 63.16544 25.76384 67.95776 59.16672zM165.248 706.66752h693.504v-126.09024H165.248zM269.8496 393.12384v28.38016c0 0.16384-0.04096 0.31744-0.04608 0.47616v1.11104h-0.11264a11.1616 11.1616 0 0 1-11.0336 9.60512H129.95584a11.1616 11.1616 0 0 1-11.0336-9.60512h-0.15872v-40.27392h0.04608v-8.02816c-0.00512-0.16384-0.04608-0.31232-0.04608-0.47616v-23.58784c0-0.16384 0.04096-0.31744 0.04608-0.47616v-1.11104h0.11264a11.1616 11.1616 0 0 1 11.0336-9.60512H258.6624a11.1616 11.1616 0 0 1 11.0336 9.60512h0.15872V384.6144h-0.04608v8.02816c0 0.16384 0.04096 0.31744 0.04096 0.48128zM269.8496 248.24832v28.38016c0 0.16384-0.04096 0.31744-0.04608 0.47616v1.11104h-0.11264a11.1616 11.1616 0 0 1-11.0336 9.60512H129.95584a11.1616 11.1616 0 0 1-11.0336-9.60512h-0.15872v-40.27392h0.04608v-8.02816c-0.00512-0.16384-0.04608-0.31232-0.04608-0.47616v-23.58784c0-0.16384 0.04096-0.31744 0.04608-0.47616v-1.11104h0.11264a11.1616 11.1616 0 0 1 11.0336-9.60512H258.6624a11.1616 11.1616 0 0 1 11.0336 9.60512h0.15872v35.4816h-0.04608v8.02816c0 0.15872 0.04096 0.31232 0.04096 0.47616zM269.8496 103.3728v28.38016c0 0.16384-0.04096 0.31744-0.04608 0.47616v1.11104h-0.11264a11.1616 11.1616 0 0 1-11.0336 9.60512H129.95584a11.1616 11.1616 0 0 1-11.0336-9.60512h-0.15872v-40.27392h0.04608v-8.02816c-0.00512-0.16384-0.04608-0.31232-0.04608-0.47616v-23.58784c0-0.16384 0.04096-0.31744 0.04608-0.47616v-1.11104h0.11264a11.1616 11.1616 0 0 1 11.0336-9.60512H258.6624a11.1616 11.1616 0 0 1 11.0336 9.60512h0.15872v35.4816h-0.04608v8.02816c0 0.15872 0.04096 0.31232 0.04096 0.47616zM484.20352 393.12384v28.38016c0 0.16384-0.04096 0.31744-0.04608 0.47616v1.11104h-0.11264a11.1616 11.1616 0 0 1-11.0336 9.60512H344.30976a11.1616 11.1616 0 0 1-11.0336-9.60512h-0.15872v-40.27392h0.04608v-8.02816c-0.00512-0.16384-0.04608-0.31232-0.04608-0.47616v-23.58784c0-0.16384 0.04096-0.31744 0.04608-0.47616v-1.11104h0.11264a11.1616 11.1616 0 0 1 11.0336-9.60512h128.70656a11.1616 11.1616 0 0 1 11.0336 9.60512h0.15872V384.6144h-0.04608v8.02816c0 0.16384 0.04096 0.31744 0.04096 0.48128zM484.20352 248.24832v28.38016c0 0.16384-0.04096 0.31744-0.04608 0.47616v1.11104h-0.11264a11.1616 11.1616 0 0 1-11.0336 9.60512H344.30976a11.1616 11.1616 0 0 1-11.0336-9.60512h-0.15872v-40.27392h0.04608v-8.02816c-0.00512-0.16384-0.04608-0.31232-0.04608-0.47616v-23.58784c0-0.16384 0.04096-0.31744 0.04608-0.47616v-1.11104h0.11264a11.1616 11.1616 0 0 1 11.0336-9.60512h128.70656a11.1616 11.1616 0 0 1 11.0336 9.60512h0.15872v35.4816h-0.04608v8.02816c0 0.15872 0.04096 0.31232 0.04096 0.47616zM484.20352 103.3728v28.38016c0 0.16384-0.04096 0.31744-0.04608 0.47616v1.11104h-0.11264a11.1616 11.1616 0 0 1-11.0336 9.60512H344.30976a11.1616 11.1616 0 0 1-11.0336-9.60512h-0.15872v-40.27392h0.04608v-8.02816c-0.00512-0.16384-0.04608-0.31232-0.04608-0.47616v-23.58784c0-0.16384 0.04096-0.31744 0.04608-0.47616v-1.11104h0.11264a11.1616 11.1616 0 0 1 11.0336-9.60512h128.70656a11.1616 11.1616 0 0 1 11.0336 9.60512h0.15872v35.4816h-0.04608v8.02816c0 0.15872 0.04096 0.31232 0.04096 0.47616zM698.55744 393.12384v28.38016c0 0.16384-0.04096 0.31744-0.04608 0.47616v1.11104h-0.11264a11.1616 11.1616 0 0 1-11.0336 9.60512h-128.70656a11.1616 11.1616 0 0 1-11.0336-9.60512h-0.15872v-40.27392h0.04608v-8.02816c-0.00512-0.16384-0.04608-0.31232-0.04608-0.47616v-23.58784c0-0.16384 0.04096-0.31744 0.04608-0.47616v-1.11104h0.11264a11.1616 11.1616 0 0 1 11.0336-9.60512h128.70656a11.1616 11.1616 0 0 1 11.0336 9.60512h0.15872V384.6144h-0.04608v8.02816c0.00512 0.16384 0.04608 0.31744 0.04608 0.48128zM911.65696 393.12384v28.38016c0 0.16384-0.04096 0.31744-0.04608 0.47616v1.11104h-0.11264a11.1616 11.1616 0 0 1-11.0336 9.60512h-128.70656a11.1616 11.1616 0 0 1-11.0336-9.60512h-0.15872v-40.27392h0.04608v-8.02816c-0.00512-0.16384-0.04608-0.31232-0.04608-0.47616v-23.58784c0-0.16384 0.04096-0.31744 0.04608-0.47616v-1.11104h0.11264a11.1616 11.1616 0 0 1 11.0336-9.60512h128.70656a11.1616 11.1616 0 0 1 11.0336 9.60512h0.15872V384.6144h-0.04608v8.02816c0.00512 0.16384 0.04608 0.31744 0.04608 0.48128zM915.86048 108.2624v166.76352c0 0.16384-0.04096 0.31744-0.04608 0.47616v1.11104h-0.11264a11.1616 11.1616 0 0 1-11.0336 9.60512h-128.70656a11.1616 11.1616 0 0 1-11.0336-9.60512h-0.15872v-178.65728h0.04608v-8.02816c-0.00512-0.16384-0.04608-0.31232-0.04608-0.47616v-23.58784c0-0.16384 0.04096-0.31744 0.04608-0.47616v-1.11104h0.11264a11.1616 11.1616 0 0 1 11.0336-9.60512h128.70656a11.1616 11.1616 0 0 1 11.0336 9.60512h0.15872v35.4816h-0.04608v8.02816c0.00512 0.15872 0.04608 0.31232 0.04608 0.47616zM698.55744 248.24832v28.38016c0 0.16384-0.04096 0.31744-0.04608 0.47616v1.11104h-0.11264a11.1616 11.1616 0 0 1-11.0336 9.60512h-128.70656a11.1616 11.1616 0 0 1-11.0336-9.60512h-0.15872v-40.27392h0.04608v-8.02816c-0.00512-0.16384-0.04608-0.31232-0.04608-0.47616v-23.58784c0-0.16384 0.04096-0.31744 0.04608-0.47616v-1.11104h0.11264a11.1616 11.1616 0 0 1 11.0336-9.60512h128.70656a11.1616 11.1616 0 0 1 11.0336 9.60512h0.15872v35.4816h-0.04608v8.02816c0.00512 0.15872 0.04608 0.31232 0.04608 0.47616zM698.55744 103.3728v28.38016c0 0.16384-0.04096 0.31744-0.04608 0.47616v1.11104h-0.11264a11.1616 11.1616 0 0 1-11.0336 9.60512h-128.70656a11.1616 11.1616 0 0 1-11.0336-9.60512h-0.15872v-40.27392h0.04608v-8.02816c-0.00512-0.16384-0.04608-0.31232-0.04608-0.47616v-23.58784c0-0.16384 0.04096-0.31744 0.04608-0.47616v-1.11104h0.11264a11.1616 11.1616 0 0 1 11.0336-9.60512h128.70656a11.1616 11.1616 0 0 1 11.0336 9.60512h0.15872v35.4816h-0.04608v8.02816c0.00512 0.15872 0.04608 0.31232 0.04608 0.47616z"  horiz-adv-x="1024" />

    
    <glyph glyph-name="heiban" unicode="&#59276;" d="M961.79712 507.36128V648.97024c0 0.8192-0.2048 1.57696-0.24064 2.38592V656.896h-0.55808c-3.88096 27.05408-26.92096 47.9232-55.04512 47.9232H129.08544c-28.12928 0-51.16928-20.86912-55.05024-47.9232h-0.79872v-200.95488h0.24064v-40.05888c-0.03584-0.80896-0.24064-1.57184-0.24064-2.38592v-305.59744c0-0.8192 0.2048-1.57696 0.24064-2.38592v-5.53472h0.55808c3.88096-27.05408 26.92096-47.9232 55.04512-47.9232h776.86272c28.12928 0 51.16928 20.86912 55.05024 47.9232h0.79872V464.91136h-0.24064v40.05888c0.04096 0.80896 0.24576 1.57184 0.24576 2.39104zM906.2656 476.61056V600.51968c0 0.7168-0.1792 1.3824-0.20992 2.08896v4.84352h-0.4864c-3.39456 23.67488-23.55712 41.9328-48.16896 41.9328H177.6384c-24.61184 0-44.7744-18.25792-48.16896-41.9328h-0.69632V431.616h0.20992v-35.05152c-0.03072-0.70656-0.20992-1.37216-0.20992-2.08896v-267.39712c0-0.7168 0.1792-1.3824 0.20992-2.08896v-4.84352h0.4864c3.39456-23.67488 23.55712-41.9328 48.16896-41.9328h679.76192c24.61184 0 44.7744 18.25792 48.16896 41.9328h0.70144V439.47008h-0.20992V474.5216c0.0256 0.70656 0.2048 1.37216 0.2048 2.08896zM1001.46176 76.8768a42.70592 42.70592 0 0 1-42.7008 42.55232H65.23904c-23.53664 0-42.60864-19.04128-42.7008-42.55232h978.92352zM340.92544 117.72928c-0.01536 23.51616-2.90304 42.55232-6.46144 42.55232H199.2192c-3.56352 0-6.4512-19.04128-6.46144-42.55232h148.16768zM1001.46176 78.06976a42.70592 42.70592 0 0 0-42.7008-42.55232H65.23904c-23.53664 0-42.60864 19.04128-42.7008 42.55232h978.92352zM420.72064 291.08736h-38.58944V420.75136h-14.89408v25.48224c4.86912 0 9.4464 2.35008 13.72672 7.05536 4.28032 4.71552 6.42048 9.50272 6.42048 14.3872h33.34144v-176.5888zM562.24256 380.11904h-34.30912v-34.30912h-20.18816v34.30912H473.4464v20.1728h34.29888v34.30912h20.18816v-34.30912h34.30912v-20.1728zM666.1632 291.08736h-38.58944V420.75136h-14.89408v25.48224c4.86912 0 9.4464 2.35008 13.72672 7.05536 4.28032 4.71552 6.42048 9.50272 6.42048 14.3872h33.34144v-176.5888z"  horiz-adv-x="1024" />

    
    <glyph glyph-name="shubiao" unicode="&#59279;" d="M514.80064 378.51648m-485.03808 0a485.03808 485.03808 0 1 1 970.07616 0 485.03808 485.03808 0 1 1-970.07616 0ZM777.24672 314.20416c0-51.23584-19.95264-99.40992-56.192-135.63904l-6.30272-6.30272c-74.78272-74.79296-196.48512-74.79296-271.27808 0L308.53632 307.2c-36.22912 36.224-56.18688 84.39296-56.18688 135.63392s19.95264 99.40992 56.18688 135.63904l6.30272 6.30272c74.79296 74.79296 196.49024 74.79296 271.2832 0l134.93248-134.93248c36.23936-36.22912 56.192-84.39808 56.192-135.63904zM448.04096 460.17024c-8.48384-9.27744-22.52288-10.24512-31.35488-2.16576l-32.85504 30.04416c-8.832 8.07936-9.11872 22.14912-0.63488 31.42144 8.48384 9.27744 22.52288 10.24512 31.35488 2.16576l32.85504-30.04416c8.832-8.07424 9.11872-22.144 0.63488-31.42144z"  horiz-adv-x="1024" />

    
    <glyph glyph-name="shizhong" unicode="&#59279;" d="M39.76192 384a472.23808 459.43808 0 1 1 944.47616 0 472.23808 459.43808 0 1 1-944.47616 0ZM94.09536 384a417.90464 406.57408 0 1 1 835.80928 0 417.90464 406.57408 0 1 1-835.80928 0ZM470.24128 384a41.75872 40.6272 0 1 1 83.51744 0 41.75872 40.6272 0 1 1-83.51744 0ZM528.7168 423.06048c0-8.9856-7.48544-16.26624-16.7168-16.26624-9.23136 0-16.7168 7.28064-16.7168 16.26624V642.64192c0 8.9856 7.48544 16.26624 16.7168 16.26624 9.23136 0 16.7168-7.28064 16.7168-16.26624v-219.58144zM476.83584 363.74016c7.03488 5.82144 17.5872 4.992 23.56736-1.85344a15.96416 15.96416 0 0 0-1.90464-22.92736l-101.88288-84.3008c-7.03488-5.82144-17.5872-4.992-23.56736 1.85344a15.96416 15.96416 0 0 0 1.90464 22.92736l101.88288 84.3008z"  horiz-adv-x="1024" />

    
    <glyph glyph-name="mingpai" unicode="&#59279;" d="M945.67936 647.64416H75.25376c-18.85184 0-34.1248-14.38208-34.1248-32.11776V12.71808c0-17.73568 15.27296-32.11776 34.1248-32.11776h870.4256c18.84672 0 34.1248 14.38208 34.1248 32.11776V615.5264c0 17.7408-15.27808 32.11776-34.1248 32.11776zM869.4272 589.2096H151.50592c-15.54944 0-28.14464-11.86304-28.14464-26.49088v-497.19808c0-14.62784 12.60032-26.49088 28.14464-26.49088H869.4272c15.54432 0 28.14976 11.86304 28.14976 26.49088V562.71872c0 14.63296-12.60544 26.49088-28.14976 26.49088zM820.18304 339.95264c0-10.78784-7.2448-19.53792-16.18432-19.53792h-235.68896c-8.93952 0-16.18432 8.74496-16.18432 19.53792 0 10.78784 7.2448 19.53792 16.18432 19.53792h235.68896c8.93952 0 16.18432-8.75008 16.18432-19.53792zM820.18304 183.64928c0-10.78784-7.2448-19.53792-16.18432-19.53792h-235.68896c-8.93952 0-16.18432 8.74496-16.18432 19.53792 0 10.78784 7.2448 19.53792 16.18432 19.53792h235.68896c8.93952 0 16.18432-8.74496 16.18432-19.53792zM448.26112 476.57984H212.82304a15.47264 15.47264 0 0 1-15.50336-15.44192v-289.8176a15.46752 15.46752 0 0 1 15.50336-15.44192h235.43808a15.47264 15.47264 0 0 1 15.50336 15.44192V461.13792a15.47776 15.47776 0 0 1-15.50336 15.44192zM356.864 187.72992l-5.59104 0.01024-8.82176-0.0512-119.23456 0.20992 0.01024 5.74464s-2.5344 32.0768 44.71296 40.20224c0 0 35.96288 4.7872 38.5024 14.67392 0 0 1.37216 1.09568 0.37888 12.57984-2.11456 24.45312-18.09408 35.9936-24.5504 45.34784-6.4512 9.36448-6.97344 20.1472-6.97344 20.1472 0.00512 2.69824 1.13664 3.6864 3.0208 5.41184 2.31936 2.14016 1.62816 4.41344 1.18784 6.82496-1.66912 9.15456-1.792 23.8592-0.17408 33.06496 0.37888 10.96192 10.46528 19.75296 10.46528 19.75296 1.8944 1.59744 3.7888 3.35872 5.12 5.47328 0.36864 0.5888 0.71168 1.21856 0.91136 1.88928 0.768 2.51904-1.79712 4.3776-1.28 7.0656 0.47104 2.41664 4.61824 2.52928 7.12704 2.65728 5.65248 0.28672 11.33568 0.50176 16.97792 0.05632 42.22464-3.31264 56.07936-18.88256 56.07936-18.88256 3.28192-3.9424 5.44256-8.76032 6.7328-13.70112 0.38912-1.47456 0.7168-2.97984 0.90112-4.50048 1.30048-7.56224 1.28-15.45216 0.86016-23.0912-0.2048-3.64544-0.62976-7.23456-1.1776-10.83904-0.2816-1.88416-0.13824-3.64032 1.12128-5.15072 1.0496-1.26464 2.2528-2.1504 2.7648-3.80928 0.24576-0.77312 0.3072-1.6128 0.3072-2.41664 0 0-0.5632-10.78784-7.05024-20.1216-6.48704-9.33888-22.50752-20.81792-24.70912-45.2608-1.03424-11.48416 0.33792-12.58496 0.33792-12.58496 2.49856-9.89696 38.44608-14.81216 38.44608-14.81216 47.744-8.94464 44.5696-40.36096 44.5696-40.36096l-0.01024-5.74464-31.44192 0.05632 4.95104 0.06144-4.22912 0.00512-8.77056 0.02048-41.472 0.07168zM422.24128 691.06176h176.45056v-94.19776H422.24128zM463.0016 787.4048h94.92992v-116.4288H463.0016z"  horiz-adv-x="1024" />

    
    <glyph glyph-name="shuweiban" unicode="&#59280;" d="M1002.68032 515.48672V671.88736c0 0.90112-0.22528 1.74592-0.26624 2.6368v6.11328h-0.6144c-4.28544 29.88032-29.73184 52.92544-60.79488 52.92544H83.00032c-31.06816 0-56.51456-23.04512-60.8-52.92544h-0.88064v-221.94176h0.26624v-44.24192c-0.03584-0.896-0.26624-1.73568-0.26624-2.6368v-337.5104c0-0.90112 0.22528-1.7408 0.26624-2.6368v-6.11328h0.6144c4.28544-29.88032 29.73184-52.92544 60.79488-52.92544h857.99936c31.06816 0 56.51456 23.04512 60.8 52.92544h0.88064V468.608h-0.26624v44.24192c0.04096 0.89088 0.27136 1.73568 0.27136 2.6368zM921.71776 491.99104V622.58688c0 0.75264-0.18944 1.45408-0.22016 2.2016v5.10464h-0.512c-3.57888 24.94976-24.82688 44.19584-50.7648 44.19584H153.78432c-25.93792 0-47.19104-19.24096-50.7648-44.19584h-0.73728V444.5696h0.22016v-36.9408c-0.03072-0.74752-0.22016-1.44896-0.22016-2.2016v-281.82528c0-0.75264 0.18944-1.45408 0.22016-2.2016v-5.10464h0.512c3.57888-24.94976 24.82688-44.19584 50.7648-44.19584h716.43136c25.93792 0 47.19104 19.24096 50.7648 44.19584h0.73728V452.84864h-0.22016v36.9408c0.03584 0.74752 0.22528 1.44896 0.22528 2.2016zM199.75168 674.08896h-45.96736c-25.93792 0-47.19104-19.24096-50.7648-44.19584h-0.73728V444.5696h0.22016v-36.9408c-0.03072-0.74752-0.22016-1.44896-0.22016-2.2016v-281.82528c0-0.75264 0.18944-1.45408 0.22016-2.2016v-5.10464h0.51712c3.57888-24.94976 24.82688-44.19584 50.7648-44.19584h45.96736V674.08896zM279.66976 409.78944c0-4.10624-3.23584-7.43424-7.22944-7.43424h-50.59584c-3.9936 0-7.22944 3.328-7.22944 7.43424 0 4.10624 3.23584 7.43424 7.22944 7.43424h50.59584c3.9936 0 7.22944-3.328 7.22944-7.43424zM275.95264 571.14624a13.6704 13.6704 0 0 0-13.66528-13.66528h-35.8656a13.6704 13.6704 0 0 0-13.66528 13.66528V640.73216a13.6704 13.6704 0 0 0 13.66528 13.66528h35.8656a13.6704 13.6704 0 0 0 13.66528-13.66528v-69.58592zM277.8112 457.76896a13.6704 13.6704 0 0 0-13.66528-13.66528h-35.8656a13.6704 13.6704 0 0 0-13.66528 13.66528V527.35488a13.6704 13.6704 0 0 0 13.66528 13.66528h35.8656a13.6704 13.6704 0 0 0 13.66528-13.66528v-69.58592zM275.95264 112.06656a13.6704 13.6704 0 0 0-13.66528-13.66528h-35.8656a13.6704 13.6704 0 0 0-13.66528 13.66528V243.5072a13.6704 13.6704 0 0 0 13.66528 13.66528h35.8656a13.6704 13.6704 0 0 0 13.66528-13.66528v-131.44064zM277.8112 292.352a13.6704 13.6704 0 0 0-13.66528-13.66528h-35.8656a13.6704 13.6704 0 0 0-13.66528 13.66528v69.58592a13.6704 13.6704 0 0 0 13.66528 13.66528h35.8656a13.6704 13.6704 0 0 0 13.66528-13.66528V292.352zM971.2896 210.0224a11.15136 11.15136 0 1 0-17.59744-13.70112l-187.264 240.512a11.15136 11.15136 0 1 0 17.60256 13.70112l187.25888-240.512z"  horiz-adv-x="1024" />

    
    <glyph glyph-name="wenjianjia" unicode="&#59280;" d="M871.03488 714.6496c-4.25472 29.696-29.54752 52.59776-60.42112 52.59776h-268.68224c-30.8736 0-56.16128-22.90176-60.42112-52.59776h-0.6144v-6.07744c-0.03584-0.89088-0.26624-1.72544-0.26624-2.62144v-50.80576H100.09088c-30.8736 0-56.16128-22.90176-60.42112-52.59776h-0.6144v-6.07744c-0.03584-0.89088-0.26624-1.72544-0.26624-2.62144v-155.43296c0-0.896 0.22528-1.73056 0.26624-2.62144v-283.71456h5.34016v-0.3584c0-0.896 0.22528-1.73056 0.26624-2.62144v-6.07744h0.6144c4.25472-29.696 29.54752-52.59776 60.42112-52.59776h704.91648c30.8736 0 56.1664 22.90176 60.42112 52.59776h0.87552V714.6496h-0.87552zM971.92448 624.9728c-4.25472 29.696-29.54752 52.59776-60.42112 52.59776h-268.68224c-30.8736 0-56.16128-22.90176-60.42112-52.59776h-0.6144v-6.07744c-0.03584-0.89088-0.26624-1.72544-0.26624-2.62144v-50.80576H200.98048c-30.8736 0-56.16128-22.90176-60.42112-52.59776h-0.6144v-6.07744c-0.03584-0.89088-0.26624-1.72544-0.26624-2.62144v-155.43296c0-0.896 0.22528-1.73056 0.26624-2.62144v-283.71456h5.34016v-0.3584c0-0.896 0.22528-1.73056 0.26624-2.62144v-6.07744h0.6144c4.25472-29.696 29.54752-52.59776 60.42112-52.59776h704.91648c30.8736 0 56.1664 22.90176 60.42112 52.59776H972.8V624.9728h-0.87552zM215.48544 466.21184h362.6752v-53.71392H215.48544zM215.48544 362.5216h362.6752v-53.71392H215.48544z"  horiz-adv-x="1024" />

    
    <glyph glyph-name="wenjian" unicode="&#59280;" d="M913.29536-45.04064c0.0256-24.82688-16.54784-44.96384-37.0176-44.98432l-708.23936-0.6912c-20.46464-0.02048-37.07904 20.08576-37.10464 44.91264l-0.83968 859.02848c-0.0256 24.82688 16.54784 44.96384 37.0176 44.98432l521.10848 0.50688 224.39424-210.50368 0.68096-693.25312zM913.29536 642.73408l-189.11744-0.18432c-20.46464-0.02048-37.07904 20.08576-37.10464 44.91264l-0.16384 165.77024 226.38592-210.49856zM720.72192 499.15904a22.54848 22.54848 0 0 0-22.54848-22.54848H326.13376a22.54848 22.54848 0 0 0 0 45.09696h372.0448a22.54848 22.54848 0 0 0 22.54336-22.54848zM720.72192 330.04544a22.54848 22.54848 0 0 0-22.54848-22.54848H326.13376a22.54848 22.54848 0 0 0 0 45.09696h372.0448a22.54848 22.54848 0 0 0 22.54336-22.54848zM720.72192 149.66272a22.54848 22.54848 0 0 0-22.54848-22.54848H326.13376a22.54848 22.54848 0 0 0 0 45.09696h372.0448a22.54848 22.54848 0 0 0 22.54336-22.54848z"  horiz-adv-x="1024" />

    
    <glyph glyph-name="xiaoyu" unicode="&#59280;" d="M509.53728 385.78176m-473.51808 0a473.51808 473.51808 0 1 1 947.03616 0 473.51808 473.51808 0 1 1-947.03616 0ZM509.53728 385.78176m-406.46144 0a406.46144 406.46144 0 1 1 812.92288 0 406.46144 406.46144 0 1 1-812.92288 0ZM759.13216 345.46176c-30.91456 49.0752-85.23264 81.92-147.52256 81.92-66.28864 0-123.85792-36.992-153.44128-91.39712h-1.46944c29.42976-54.92224 87.33696-92.30336 154.0096-92.30336 63.13984 0 118.0672 33.76128 148.74112 83.96288a113.4592 113.4592 0 0 1 75.68896-48.37888v116.0192c-31.81056-5.34016-59.02336-23.8848-76.0064-49.82272zM399.05792 443.10016m-26.19392 0a26.19392 26.19392 0 1 1 52.38784 0 26.19392 26.19392 0 1 1-52.38784 0ZM298.47552 543.68256m-47.15008 0a47.15008 47.15008 0 1 1 94.30016 0 47.15008 47.15008 0 1 1-94.30016 0ZM527.2832 348.28288l7.50592 12.99968c7.81312-4.70016 19.36384-8.90368 28.76928-8.90368 9.45664 0 21.33504 4.39296 29.17888 9.14432l7.2192-13.1584c-10.69056-7.03488-23.12192-11.08992-36.4032-11.08992-13.22496 0.00512-25.61024 4.02432-36.27008 11.008z"  horiz-adv-x="1024" />

    
    <glyph glyph-name="bangbangtang" unicode="&#59309;" d="M823.53152 87.6544a475.78112 475.78112 0 0 0-77.5168-62.84288 478.91968 478.91968 0 0 0-42.65984-24.7296l53.53984-82.29888c21.87776-33.62816 67.47648-42.75712 101.84704-20.39808 34.37056 22.35904 44.49792 67.74784 22.62528 101.376l-57.83552 88.89344zM512.80384 409.30816m-463.69792 0a463.69792 463.69792 0 1 1 927.39584 0 463.69792 463.69792 0 1 1-927.39584 0ZM512.80384 409.30816m-352.1536 0a352.1536 352.1536 0 1 1 704.3072 0 352.1536 352.1536 0 1 1-704.3072 0ZM512.80384 409.30816m-222.86848 0a222.86848 222.86848 0 1 1 445.73696 0 222.86848 222.86848 0 1 1-445.73696 0ZM512.80384 409.30816m-96.77824 0a96.77824 96.77824 0 1 1 193.55648 0 96.77824 96.77824 0 1 1-193.55648 0Z"  horiz-adv-x="1024" />

    
    <glyph glyph-name="boluo" unicode="&#59309;" d="M525.40928 883.77856v-320.44544s-124.78464 12.032-161.81248 30.04928-61.78816 50.06336-61.78816 50.06336 31.232 28.03712 38.01088 28.03712-35.98848 92.12928-22.61504 108.14976c13.37344 16.02048 127.99488 8.0128 130.7648-8.0128S423.8336 827.6992 525.40928 883.77856zM525.40928 883.77856v-320.44544s124.78464 12.032 161.81248 30.04928c37.02784 18.01728 61.78816 50.06336 61.78816 50.06336s-31.232 28.03712-38.01088 28.03712 35.98848 92.12928 22.61504 108.14976c-13.37344 16.02048-127.99488 8.0128-130.7648-8.0128s24.1408 56.07936-77.44 112.15872zM523.77088 262.47168m-382.79168 0a382.79168 382.79168 0 1 1 765.58336 0 382.79168 382.79168 0 1 1-765.58336 0ZM898.31936 342.09792l-62.8224-48.75776-111.91296 95.12448 116.18304 90.17344a384.35328 384.35328 0 0 1-34.4576 43.21792l-124.7488-96.82432-109.84448 93.36832 116.39296 90.33728a379.94496 379.94496 0 0 1-61.02016 22.6048l-98.40128-76.37504-93.62432 79.59552a379.66336 379.66336 0 0 1-61.37344-20.37248l110.39232-93.83424-113.88928-88.39168-117.3504 99.74784a385.05472 385.05472 0 0 1-35.95776-41.97376l108.70272-92.40064-116.03456-90.0608-56.1408 47.7184a382.6944 382.6944 0 0 1-10.15296-63.90784l21.6832-18.432-22.67136-17.59744a384.09728 384.09728 0 0 1 6.70208-64.76288l58.99776 45.78816 109.84448-93.36832-114.048-88.51456a383.5392 383.5392 0 0 1 33.37728-44.0576l123.69408 96.00512 111.91296-95.1296-117.90848-91.51488a380.2112 380.2112 0 0 1 59.70944-23.61856l101.2224 78.56128 98.91328-84.07552a380.14464 380.14464 0 0 1 61.37344 20.36736l-115.68128 98.3296 116.03456 90.0608 122.33216-103.98208a384.41984 384.41984 0 0 1 35.66592 42.21952l-113.39264 96.384 113.88928 88.39168 61.42464-52.21376a382.16704 382.16704 0 0 1 10.15296 63.90784l-26.97216 22.92736 27.74528 21.53472a381.73184 381.73184 0 0 1-7.94112 63.80032zM526.1056 483.7888l109.84448-93.36832-113.88928-88.39168-109.83936 93.3632 113.88416 88.3968z m-274.52928-213.07904l116.03456 90.0608 109.84448-93.36832-116.03456-90.0608-109.84448 93.36832z m264.78592-225.06496l-111.91296 95.1296 116.03456 90.0608 111.91296-95.1296-116.03456-90.0608z m160.64 124.68224l-111.91296 95.1296 113.88928 88.39168 111.91296-95.1296-113.88928-88.39168z"  horiz-adv-x="1024" />

    
    <glyph glyph-name="hebaodan" unicode="&#59310;" d="M508.1088 387.85536m-492.96384 0a492.96384 492.96384 0 1 1 985.92768 0 492.96384 492.96384 0 1 1-985.92768 0ZM508.1088 820.33664c238.85312 0 432.48128-193.62816 432.48128-432.48128 0-238.85312-193.62816-432.48128-432.48128-432.48128V820.33664zM508.1088 820.33664c-238.85312 0-432.48128-193.62816-432.48128-432.48128 0-238.85312 193.62816-432.48128 432.48128-432.48128V820.33664zM508.1088 688.82432S396.38016 676.1984 333.24032 564.64896 253.25568 362.5984 263.7824 291.04128c35.77856-197.84192 244.3264-204.15488 244.3264-204.15488V688.82432zM508.1088 688.82432s111.72864-12.62592 174.86848-124.17536 79.97952-202.05056 69.4528-273.60768c-35.77856-197.84192-244.3264-204.15488-244.3264-204.15488V688.82432zM508.1088 387.85536c-57.5232 0-104.15104-46.62784-104.15104-104.15104s46.63296-104.15104 104.15104-104.15104V387.85536zM508.1088 387.85536c57.5232 0 104.15104-46.62784 104.15104-104.15104s-46.63296-104.15104-104.15104-104.15104V387.85536z"  horiz-adv-x="1024" />

    
    <glyph glyph-name="caomei" unicode="&#59310;" d="M511.85664 745.98912c238.49472 0 431.83104-193.33632 431.83104-431.83104 0-238.49472-193.33632-431.82592-431.83104-431.82592V745.98912zM511.85664 745.98912c-238.49472 0-431.83104-193.33632-431.83104-431.83104 0-238.49472 193.33632-431.82592 431.83104-431.82592V745.98912zM483.08224 715.22304c-22.95808 49.54624 21.6064 118.9888 99.54304 155.1104 77.93664 36.11648 159.73376 25.23136 182.69184-24.31488L483.08224 715.22304zM483.08224 715.22304c22.95808-49.54624 104.7552-60.43136 182.69184-24.31488 77.93664 36.11648 122.50624 105.56416 99.54304 155.1104L483.08224 715.22304zM337.45408 544.67072m-28.01152 0a28.01152 28.01152 0 1 1 56.02304 0 28.01152 28.01152 0 1 1-56.02304 0ZM511.85664 544.67072m-28.01152 0a28.01152 28.01152 0 1 1 56.02304 0 28.01152 28.01152 0 1 1-56.02304 0ZM686.26432 544.67072m-28.01152 0a28.01152 28.01152 0 1 1 56.02304 0 28.01152 28.01152 0 1 1-56.02304 0ZM236.20096 429.41952m-28.01152 0a28.01152 28.01152 0 1 1 56.02304 0 28.01152 28.01152 0 1 1-56.02304 0ZM419.97312 429.41952m-28.01152 0a28.01152 28.01152 0 1 1 56.02304 0 28.01152 28.01152 0 1 1-56.02304 0ZM603.74528 429.41952m-28.01152 0a28.01152 28.01152 0 1 1 56.02304 0 28.01152 28.01152 0 1 1-56.02304 0ZM787.51744 429.41952m-28.01152 0a28.01152 28.01152 0 1 1 56.02304 0 28.01152 28.01152 0 1 1-56.02304 0ZM337.45408 314.1632m-28.01152 0a28.01152 28.01152 0 1 1 56.02304 0 28.01152 28.01152 0 1 1-56.02304 0ZM511.85664 314.1632m-28.01152 0a28.01152 28.01152 0 1 1 56.02304 0 28.01152 28.01152 0 1 1-56.02304 0ZM686.26432 314.1632m-28.01152 0a28.01152 28.01152 0 1 1 56.02304 0 28.01152 28.01152 0 1 1-56.02304 0ZM337.45408 83.65056m-28.01152 0a28.01152 28.01152 0 1 1 56.02304 0 28.01152 28.01152 0 1 1-56.02304 0ZM511.85664 83.65056m-28.01152 0a28.01152 28.01152 0 1 1 56.02304 0 28.01152 28.01152 0 1 1-56.02304 0ZM686.26432 83.65056m-28.01152 0a28.01152 28.01152 0 1 1 56.02304 0 28.01152 28.01152 0 1 1-56.02304 0ZM236.20096 198.90688m-28.01152 0a28.01152 28.01152 0 1 1 56.02304 0 28.01152 28.01152 0 1 1-56.02304 0ZM419.97312 198.90688m-28.01152 0a28.01152 28.01152 0 1 1 56.02304 0 28.01152 28.01152 0 1 1-56.02304 0ZM603.74528 198.90688m-28.01152 0a28.01152 28.01152 0 1 1 56.02304 0 28.01152 28.01152 0 1 1-56.02304 0ZM787.51744 198.90688m-28.01152 0a28.01152 28.01152 0 1 1 56.02304 0 28.01152 28.01152 0 1 1-56.02304 0Z"  horiz-adv-x="1024" />

    
    <glyph glyph-name="chengzi" unicode="&#59310;" d="M510.75072 356.5056m-472.18176 0a472.18176 472.18176 0 1 1 944.36352 0 472.18176 472.18176 0 1 1-944.36352 0ZM508.78976 676.77184c-20.6848 44.63616 19.46624 107.20256 89.68704 139.74528 70.21568 32.54272 143.90784 22.7328 164.59776-21.90336L508.78976 676.77184zM508.78976 676.77184c20.6848-44.63616 94.37696-54.44608 164.59776-21.90336 70.21568 32.54272 110.37184 95.104 89.68704 139.74528L508.78976 676.77184zM370.32448 675.50208m-23.6544 0a23.6544 23.6544 0 1 1 47.3088 0 23.6544 23.6544 0 1 1-47.3088 0ZM254.208 582.3232m-23.6544 0a23.6544 23.6544 0 1 1 47.3088 0 23.6544 23.6544 0 1 1-47.3088 0ZM743.41376 614.93248m-23.6544 0a23.6544 23.6544 0 1 1 47.3088 0 23.6544 23.6544 0 1 1-47.3088 0ZM859.53024 507.776m-23.6544 0a23.6544 23.6544 0 1 1 47.3088 0 23.6544 23.6544 0 1 1-47.3088 0ZM767.06816 461.184m-23.6544 0a23.6544 23.6544 0 1 1 47.3088 0 23.6544 23.6544 0 1 1-47.3088 0ZM631.59296 549.34528m-23.6544 0a23.6544 23.6544 0 1 1 47.3088 0 23.6544 23.6544 0 1 1-47.3088 0ZM878.16704 330.73152m-23.6544 0a23.6544 23.6544 0 1 1 47.3088 0 23.6544 23.6544 0 1 1-47.3088 0ZM504.02304 671.64672s-27.4944 173.22496-8.24832 192.47104 33.90976 12.17024 41.24672 5.49888c15.12448-13.7472-16.49664-159.47776-16.49664-178.72384 0-19.24608-8.24832-38.49216-16.50176-19.24608zM460.36992 674.33984s33.19808 5.24288 54.16448 0c20.9664-5.24288 22.71232-6.9888 26.20928-12.23168 3.49184-5.24288-24.45824-3.49184-24.45824-3.49184s-19.22048 5.24288-31.44704 5.24288H463.872s-13.98272 5.23776-3.50208 10.48064z"  horiz-adv-x="1024" />

    
    <glyph glyph-name="hongpingguo" unicode="&#59311;" d="M511.90272 378.44992m-500.64384 0a500.64384 500.64384 0 1 1 1001.28768 0 500.64384 500.64384 0 1 1-1001.28768 0ZM500.70016 599.33696s-32.49664 204.73344-9.74848 227.4816 40.07424 14.38208 48.74752 6.49728c17.87392-16.25088-19.49696-188.48768-19.49696-211.23584s-9.74848-45.4912-19.50208-22.74304zM512.39424 667.4432c-269.824 135.76704-446.55616-112.46592-446.55616-335.52384 0-224.63488 244.61312-494.90944 435.17952-349.8496 3.77856 2.87744 7.58272 5.60128 11.37664 8.35072V667.4432zM511.41632 667.4432c269.824 135.76704 446.55616-112.46592 446.55616-335.52384 0-224.63488-244.61312-494.90944-435.17952-349.8496-3.77856 2.87744-7.58272 5.60128-11.37664 8.35072V667.4432zM491.83232 370.87744c5.13024 2.05312 0 52.64896-15.04256 56.75008s-24.23296-7.32672-24.95488-13.67552c-1.71008-15.04256 31.104-46.63296 39.99744-43.07456zM535.82848 370.09408c4.9152-2.51392 39.67488 34.6112 32.87552 48.64s-21.4528 13.44512-26.71104 9.81504c-12.45696-8.59648-14.68928-54.0928-6.16448-58.45504zM566.35392 336.08192c1.92-5.17632 52.62848-1.32608 57.10848 13.60896s-6.71744 24.41216-13.04064 25.2928c-14.99136 2.08896-47.40096-29.92128-44.06784-38.90176zM570.00448 298.72128c-3.38432-4.36736 26.65984-45.39904 41.70752-41.3184 15.04768 4.08064 17.18784 18.59072 14.59712 24.42752-6.144 13.83936-50.43712 24.46336-56.30464 16.89088zM537.83552 263.74656c-5.32992-1.44384-6.10816-52.29056 8.35584-58.112 14.464-5.82144 24.92416 4.46464 26.37312 10.68544 3.44064 14.7456-25.48224 49.93024-34.72896 47.42656zM493.15328 262.784c-4.80768 2.72384-41.10848-32.89088-34.91328-47.20128s20.864-14.34624 26.27072-10.94144c12.81024 8.05888 16.97792 53.41696 8.64256 58.14272zM458.368 293.63712c-2.14016 5.0944-52.63872-0.90624-56.48384-16.01536-3.84512-15.10912 7.74656-24.10496 14.10048-24.71936 15.07328-1.44384 46.09536 31.90784 42.38336 40.73472zM458.00448 341.28896c1.8432 5.20704-39.56224 34.73408-52.57216 26.1376s-10.48064-23.04512-6.19008-27.776c10.17856-11.20768 55.56736-7.39328 58.76224 1.6384z"  horiz-adv-x="1024" />

    
    <glyph glyph-name="ningmeng" unicode="&#59312;" d="M516.15744 377.22112m-489.12384 0a489.12384 489.12384 0 1 1 978.24768 0 489.12384 489.12384 0 1 1-978.24768 0ZM516.15744 377.22112m-432.07168 0a432.07168 432.07168 0 1 1 864.14336 0 432.07168 432.07168 0 1 1-864.14336 0ZM537.99424 753.47968v-331.8016l233.14944 233.14944c-62.16192 57.11872-143.37024 93.50144-233.14944 98.65216zM501.16608 753.82272c-90.76224-3.57376-173.12768-39.06048-236.40576-95.73888l236.40576-236.40576V753.82272zM475.12064 358.8096H139.72992c4.40832-91.136 40.98048-173.62432 98.82624-236.5696l236.56448 236.5696zM475.12576 395.63776L238.55616 632.20736C180.70528 569.26208 144.13824 486.76864 139.72992 395.63776h335.39584zM501.16608 332.76928L264.76032 96.3584c63.27808-56.68352 145.6384-92.17024 236.40576-95.744v332.15488zM564.03456 358.8096l232.9856-232.9856c55.97184 62.48448 91.24352 143.56992 95.56992 232.9856h-328.55552zM537.99424 332.76928v-331.8016c89.78432 5.15072 170.99264 41.52832 233.14944 98.65216l-233.14944 233.14944zM564.03456 395.63776h328.55552c-4.3264 89.41568-39.6032 170.50112-95.56992 232.9856l-232.9856-232.9856z"  horiz-adv-x="1024" />

    
    <glyph glyph-name="niuyouguo" unicode="&#59312;" d="M507.89376 380.12416m-486.43072 0a486.43072 486.43072 0 1 1 972.86144 0 486.43072 486.43072 0 1 1-972.86144 0ZM507.89376 747.38688s-136.34048-15.4112-213.38624-151.5264-97.59232-246.5536-84.75136-333.87008c43.65824-241.41312 298.1376-249.11872 298.1376-249.11872V747.38688zM507.89376 747.38688s136.34048-15.4112 213.38624-151.5264 97.59232-246.5536 84.75136-333.87008c-43.65824-241.41312-298.1376-249.11872-298.1376-249.11872V747.38688zM507.89376 439.46496c-86.01088 0-155.73504-69.72416-155.73504-155.73504s69.72416-155.73504 155.73504-155.73504V439.46496zM507.89376 439.46496c86.01088 0 155.73504-69.72416 155.73504-155.73504s-69.72416-155.73504-155.73504-155.73504V439.46496zM507.89376 380.81024c-53.61664 0-97.08032-43.46368-97.08032-97.08032 0-53.61664 43.46368-97.08032 97.08032-97.08032v194.16064zM507.89376 380.81024c53.61664 0 97.08032-43.46368 97.08032-97.08032 0-53.61664-43.46368-97.08032-97.08032-97.08032v194.16064z"  horiz-adv-x="1024" />

    
    <glyph glyph-name="qingpingguo" unicode="&#59313;" d="M512.09216 390.3232m-490.40384 0a490.40384 490.40384 0 1 1 980.80768 0 490.40384 490.40384 0 1 1-980.80768 0ZM501.12 606.6944s-31.83104 200.54528-9.5488 222.82752 39.25504 14.08512 47.74912 6.36416c17.5104-15.91808-19.0976-184.63232-19.0976-206.91456s-9.55392-44.56448-19.10272-22.27712zM512.57344 673.408C248.2688 806.39488 75.15136 563.24096 75.15136 344.74496c0-220.03712 239.60576-484.7872 426.28096-342.69696 3.70176 2.82112 7.424 5.48352 11.14624 8.17664V673.408zM511.61088 673.408c264.30464 132.98688 437.42208-110.16704 437.42208-328.66304 0-220.03712-239.60576-484.7872-426.28096-342.69696-3.70176 2.82112-7.424 5.48352-11.14624 8.17664V673.408zM492.43136 382.90432c5.02272 2.00704 0 51.56864-14.73536 55.58784-14.73536 4.0192-23.74144-7.17824-24.448-13.39392-1.67424-14.73536 30.46912-45.68064 39.18336-42.19392zM535.5264 382.13632c4.81792-2.46272 38.8608 33.90464 32.2048 47.64672-6.656 13.7472-21.0176 13.16864-26.1632 9.61536-12.20608-8.42752-14.39232-52.98688-6.0416-57.26208zM565.4272 348.82048c1.88416-5.07392 51.55328-1.29536 55.94112 13.33248 4.38784 14.62784-6.5792 23.9104-12.7744 24.77568-14.68928 2.04288-46.43328-29.312-43.16672-38.10816zM569.00096 312.22272c-3.31264-4.2752 26.11712-44.4672 40.8576-40.4736 14.74048 3.99872 16.83456 18.21184 14.29504 23.93088-6.016 13.55264-49.40288 23.9616-55.15264 16.54272zM537.49248 277.9648c-5.2224-1.41312-5.98528-51.22048 8.18176-56.92416 14.16704-5.70368 24.41216 4.3776 25.83552 10.46528 3.37408 14.44352-24.96 48.91136-34.01728 46.45888zM493.7216 277.0176c-4.70528 2.66752-40.2688-32.22016-34.19648-46.2336s20.43904-14.04928 25.73312-10.72128c12.54912 7.90016 16.62976 52.33152 8.46336 56.95488zM459.65312 307.24608c-2.09408 4.98688-51.56352-0.88576-55.32672-15.68768-3.7632-14.80192 7.58784-23.61344 13.81376-24.21248 14.75584-1.41824 45.14304 31.24736 41.51296 39.90016zM459.2896 353.92c1.80224 5.09952-38.75328 34.02752-51.49696 25.60512-12.74368-8.4224-10.2656-22.57408-6.06208-27.20768 9.97376-10.9824 54.43072-7.2448 57.55904 1.60256z"  horiz-adv-x="1024" />

    
    <glyph glyph-name="pisa" unicode="&#59313;" d="M511.46752 383.05792m-495.52384 0a495.52384 495.52384 0 1 1 991.04768 0 495.52384 495.52384 0 1 1-991.04768 0ZM511.46752 383.05792m-440.70912 0a440.70912 440.70912 0 1 1 881.41824 0 440.70912 440.70912 0 1 1-881.41824 0ZM397.60896 600.45824m-81.33632 0a81.33632 81.33632 0 1 1 162.67264 0 81.33632 81.33632 0 1 1-162.67264 0ZM366.4384 631.6288m-10.4192 0a10.4192 10.4192 0 1 1 20.8384 0 10.4192 10.4192 0 1 1-20.8384 0ZM366.4384 574.14144m-10.4192 0a10.4192 10.4192 0 1 1 20.8384 0 10.4192 10.4192 0 1 1-20.8384 0ZM433.10592 631.6288m-10.4192 0a10.4192 10.4192 0 1 1 20.8384 0 10.4192 10.4192 0 1 1-20.8384 0ZM397.60896 600.45824m-10.4192 0a10.4192 10.4192 0 1 1 20.8384 0 10.4192 10.4192 0 1 1-20.8384 0ZM433.10592 563.72224m-10.4192 0a10.4192 10.4192 0 1 1 20.8384 0 10.4192 10.4192 0 1 1-20.8384 0ZM666.91584 563.03104m-81.33632 0a81.33632 81.33632 0 1 1 162.67264 0 81.33632 81.33632 0 1 1-162.67264 0ZM635.74528 594.2016m-10.4192 0a10.4192 10.4192 0 1 1 20.8384 0 10.4192 10.4192 0 1 1-20.8384 0ZM635.74528 536.71424m-10.4192 0a10.4192 10.4192 0 1 1 20.8384 0 10.4192 10.4192 0 1 1-20.8384 0ZM702.4128 594.2016m-10.4192 0a10.4192 10.4192 0 1 1 20.8384 0 10.4192 10.4192 0 1 1-20.8384 0ZM666.91584 563.03104m-10.4192 0a10.4192 10.4192 0 1 1 20.8384 0 10.4192 10.4192 0 1 1-20.8384 0ZM702.4128 526.29504m-10.4192 0a10.4192 10.4192 0 1 1 20.8384 0 10.4192 10.4192 0 1 1-20.8384 0ZM733.68064 304.32768m-81.33632 0a81.33632 81.33632 0 1 1 162.67264 0 81.33632 81.33632 0 1 1-162.67264 0ZM702.51008 335.49824m-10.4192 0a10.4192 10.4192 0 1 1 20.8384 0 10.4192 10.4192 0 1 1-20.8384 0ZM702.51008 278.00576m-10.4192 0a10.4192 10.4192 0 1 1 20.8384 0 10.4192 10.4192 0 1 1-20.8384 0ZM769.17248 335.49824m-10.4192 0a10.4192 10.4192 0 1 1 20.8384 0 10.4192 10.4192 0 1 1-20.8384 0ZM733.68064 304.32768m-10.4192 0a10.4192 10.4192 0 1 1 20.8384 0 10.4192 10.4192 0 1 1-20.8384 0ZM769.17248 267.59168m-10.4192 0a10.4192 10.4192 0 1 1 20.8384 0 10.4192 10.4192 0 1 1-20.8384 0ZM495.70816 165.66272m-81.33632 0a81.33632 81.33632 0 1 1 162.67264 0 81.33632 81.33632 0 1 1-162.67264 0ZM464.5376 196.83328m-10.4192 0a10.4192 10.4192 0 1 1 20.8384 0 10.4192 10.4192 0 1 1-20.8384 0ZM464.5376 139.34592m-10.4192 0a10.4192 10.4192 0 1 1 20.8384 0 10.4192 10.4192 0 1 1-20.8384 0ZM531.20512 196.83328m-10.4192 0a10.4192 10.4192 0 1 1 20.8384 0 10.4192 10.4192 0 1 1-20.8384 0ZM495.70816 165.66272m-10.4192 0a10.4192 10.4192 0 1 1 20.8384 0 10.4192 10.4192 0 1 1-20.8384 0ZM531.20512 128.92672m-10.4192 0a10.4192 10.4192 0 1 1 20.8384 0 10.4192 10.4192 0 1 1-20.8384 0ZM289.25952 331.0848m-81.33632 0a81.33632 81.33632 0 1 1 162.67264 0 81.33632 81.33632 0 1 1-162.67264 0ZM258.08896 362.25536m-10.4192 0a10.4192 10.4192 0 1 1 20.8384 0 10.4192 10.4192 0 1 1-20.8384 0ZM258.08896 304.768m-10.4192 0a10.4192 10.4192 0 1 1 20.8384 0 10.4192 10.4192 0 1 1-20.8384 0ZM324.75136 362.25536m-10.4192 0a10.4192 10.4192 0 1 1 20.8384 0 10.4192 10.4192 0 1 1-20.8384 0ZM289.25952 331.0848m-10.4192 0a10.4192 10.4192 0 1 1 20.8384 0 10.4192 10.4192 0 1 1-20.8384 0ZM324.75136 294.35392m-10.4192 0a10.4192 10.4192 0 1 1 20.8384 0 10.4192 10.4192 0 1 1-20.8384 0ZM276.77696 566.89664l4.27008-16.77824c-10.24-2.41152-23.15776-8.2432-30.9248-15.81568-7.808-7.61344-14.08-20.80768-16.73216-31.04768l-16.55808 5.05344c3.15904 14.41792 10.1632 27.776 21.13024 38.46656 10.92096 10.6496 24.38656 17.3056 38.81472 20.1216zM535.13216 680.50944l8.65792 14.99648c9.0112-5.42208 22.33344-10.27072 33.18272-10.27072 10.9056 0 24.60672 5.0688 33.65888 10.5472l8.32512-15.17568c-12.32896-8.1152-26.67008-12.78976-41.984-12.78976-15.2576 0-29.5424 4.6336-41.84064 12.69248zM820.25472 384.32256l-14.44352 9.5488c5.95456 8.66816 11.60192 21.67296 12.25728 32.50176 0.66048 10.88512-3.56864 24.86784-8.49408 34.23232l15.65184 7.39328c7.35744-12.8 11.15136-27.392 10.22976-42.68032-0.9216-15.22688-6.41536-29.20448-15.20128-40.99584zM478.8736 371.38432l8.65792 14.99648c9.0112-5.42208 22.33344-10.27072 33.18272-10.27072 10.9056 0 24.60672 5.0688 33.65888 10.5472l8.32512-15.17568c-12.32896-8.1152-26.67008-12.78976-41.984-12.78976-15.2576 0-29.5424 4.63872-41.84064 12.69248zM228.75136 213.49888l17.24928-1.48992c-1.09568-10.46016 0.15872-24.58112 4.75136-34.4064 4.61824-9.8816 15.01184-20.1472 23.808-26.02496l-10.21952-13.97248c-12.57472 7.7312-22.88128 18.74432-29.36832 32.6144-6.46144 13.824-8.30976 28.72832-6.2208 43.27936zM660.16256 43.04384l-2.66752 17.10592c10.4192 1.4336 23.8336 6.016 32.2816 12.82048 8.49408 6.84032 15.98464 19.38432 19.59424 29.32736l16.00512-6.59456c-4.51072-14.0544-12.74368-26.69056-24.67328-36.3008-11.87328-9.56928-25.9072-14.91968-40.54016-16.3584z"  horiz-adv-x="1024" />

    
    <glyph glyph-name="yezhi" unicode="&#59314;" d="M571.24864 812.28288c249.08288 0 451.01056-201.92256 451.01056-451.01056 0-249.08288-201.92256-451.01056-451.01056-451.01056V812.28288zM571.24864 812.28288c-249.08288 0-451.01056-201.92256-451.01056-451.01056 0-249.08288 201.92256-451.01056 451.01056-451.01056V812.28288zM571.24864 751.44704c-215.48544 0-390.17472-174.68928-390.17472-390.17472s174.68928-390.17472 390.17472-390.17472V751.44704zM491.55072 401.9712L252.35456 703.55968c-6.03648 7.60832-15.19104 10.73664-24.19712 10.0352a28.22656 28.22656 0 0 1-5.77536 0.60416H39.92576a28.09856 28.09856 0 0 1-28.10368-28.10368 28.09856 28.09856 0 0 1 28.10368-28.10368h176.82432l230.7584-290.94912a28.1088 28.1088 0 0 1 44.04224 34.92864z"  horiz-adv-x="1024" />

    
    <glyph glyph-name="xigua" unicode="&#59314;" d="M517.10976 863.86688c265.3952 0 480.54272-215.14752 480.54272-480.54272 0-265.3952-215.14752-480.54272-480.54272-480.54272V863.86688zM506.624 836.33664c250.19392 0 453.0176-202.82368 453.0176-453.0176 0-250.19392-202.82368-453.0176-453.0176-453.0176V836.33664zM517.10976 863.86688c-265.3952 0-480.54272-215.14752-480.54272-480.54272 0-265.3952 215.14752-480.54272 480.54272-480.54272V863.86688zM635.24352 682.53696m-34.27328 0a34.27328 34.27328 0 1 1 68.54656 0 34.27328 34.27328 0 1 1-68.54656 0ZM635.24352 84.10624m-34.27328 0a34.27328 34.27328 0 1 1 68.54656 0 34.27328 34.27328 0 1 1-68.54656 0ZM775.21408 573.824m-34.27328 0a34.27328 34.27328 0 1 1 68.54656 0 34.27328 34.27328 0 1 1-68.54656 0ZM775.21408 203.99616m-34.27328 0a34.27328 34.27328 0 1 1 68.54656 0 34.27328 34.27328 0 1 1-68.54656 0ZM831.872 396.95872m-34.27328 0a34.27328 34.27328 0 1 1 68.54656 0 34.27328 34.27328 0 1 1-68.54656 0ZM288.45568-39.42912a477.50656 477.50656 0 0 1 97.57696-39.54176V845.6192a477.52704 477.52704 0 0 1-97.57696-39.54688v-845.50144zM130.27328 668.35968C71.40864 588.61056 36.56704 490.05056 36.56704 383.32416s34.8416-205.2864 93.70624-285.04064V668.35968zM416.33792 853.1968v-939.74528a482.2528 482.2528 0 0 1 100.77184-10.67008V863.86688c-34.57536 0-68.27008-3.73248-100.77184-10.67008zM258.1504 788.02432a483.0208 483.0208 0 0 1-97.57696-82.54976v-644.30592a482.88256 482.88256 0 0 1 97.57696-82.54976V788.02432z"  horiz-adv-x="1024" />

    
    <glyph glyph-name="xihongshi" unicode="&#59315;" d="M512.50176 881.47968c273.87904 0 495.90272-222.02368 495.90272-495.90272s-222.02368-495.90272-495.90272-495.90272V881.47968zM512.50176 881.47968C238.62272 881.47968 16.59904 659.456 16.59904 385.57696s222.02368-495.90272 495.90272-495.90272V881.47968zM513.75104 385.58208m-75.7504 0a75.7504 75.7504 0 1 1 151.5008 0 75.7504 75.7504 0 1 1-151.5008 0ZM709.43744 416.9472l-37.70368 37.76512 0.03072 45.04064a43.44832 43.44832 0 0 1-43.49952 43.49952l-44.90752-0.03072-38.36416 38.4256a44.24192 44.24192 0 0 1-62.63296 0l-38.4768-38.53824-44.20608-0.03072c-24.0384-0.02048-43.55072-19.5328-43.5712-43.5712l-0.03072-44.34432-38.15424-38.21568a44.40064 44.40064 0 0 1 0-62.73536l38.0416-38.11328-0.03072-45.184a43.44832 43.44832 0 0 1 43.49952-43.49952l45.05088 0.03072 37.87776-37.9392a44.24192 44.24192 0 0 1 62.63296 0l37.9904 38.05184 45.04064 0.03072a43.6224 43.6224 0 0 1 43.5712 43.5712l0.03072 45.184 37.81632 37.86752c17.28512 17.32096 17.28512 45.4144-0.00512 62.73536z m-195.58912-148.69504c-64.70144 0-117.15584 52.4544-117.15584 117.15584 0 64.70144 52.4544 117.15584 117.15584 117.15584s117.16096-52.4544 117.16096-117.15584c-0.00512-64.70144-52.45952-117.15584-117.16096-117.15584z"  horiz-adv-x="1024" />

    
    <glyph glyph-name="accept_database" unicode="&#58882;" d="M810.666667 746.666667H213.333333c-23.466667 0-42.666667-19.2-42.666666-42.666667v-128c0-23.466667 19.2-42.666667 42.666666-42.666667h597.333334c23.466667 0 42.666667 19.2 42.666666 42.666667V704c0 23.466667-19.2 42.666667-42.666666 42.666667zM810.666667 490.666667H213.333333c-23.466667 0-42.666667-19.2-42.666666-42.666667v-128c0-23.466667 19.2-42.666667 42.666666-42.666667h597.333334c23.466667 0 42.666667 19.2 42.666666 42.666667v128c0 23.466667-19.2 42.666667-42.666666 42.666667zM810.666667 234.666667H213.333333c-23.466667 0-42.666667-19.2-42.666666-42.666667v-128c0-23.466667 19.2-42.666667 42.666666-42.666667h597.333334c23.466667 0 42.666667 19.2 42.666666 42.666667v128c0 23.466667-19.2 42.666667-42.666666 42.666667zM810.666667 85.333333m-213.333334 0a213.333333 213.333333 0 1 1 426.666667 0 213.333333 213.333333 0 1 1-426.666667 0ZM906.666667 185.6L785.066667 64l-57.6 57.6-44.8-46.933333 102.4-102.4 166.4 166.4z"  horiz-adv-x="1024" />

    
    <glyph glyph-name="add_image" unicode="&#58882;" d="M853.333333 21.333333H170.666667c-46.933333 0-85.333333 38.4-85.333334 85.333334V661.333333c0 46.933333 38.4 85.333333 85.333334 85.333334h682.666666c46.933333 0 85.333333-38.4 85.333334-85.333334v-554.666666c0-46.933333-38.4-85.333333-85.333334-85.333334zM746.666667 554.666667m-64 0a64 64 0 1 1 128 0 64 64 0 1 1-128 0ZM426.666667 554.666667L192 213.333333h469.333333zM661.333333 426.666667l-170.666666-213.333334h341.333333zM810.666667 85.333333m-213.333334 0a213.333333 213.333333 0 1 1 426.666667 0 213.333333 213.333333 0 1 1-426.666667 0ZM768 213.333333h85.333333v-256h-85.333333zM682.666667 128h256v-85.333333H682.666667z"  horiz-adv-x="1024" />

    
    <glyph glyph-name="advance" unicode="&#58883;" d="M983.466667 384L704 149.333333V618.666667zM213.333333 469.333333h85.333334v-170.666666h-85.333334zM85.333333 469.333333h85.333334v-170.666666H85.333333zM341.333333 469.333333h85.333334v-170.666666h-85.333334zM469.333333 469.333333h298.666667v-170.666666H469.333333z"  horiz-adv-x="1024" />

    
    <glyph glyph-name="advertising" unicode="&#58883;" d="M371.2 192H320v85.333333h85.333333l8.533334-32c6.4-27.733333-14.933333-53.333333-42.666667-53.333333zM789.333333 128s-251.733333 149.333333-384 149.333333V576c123.733333 0 384 149.333333 384 149.333333v-597.333333zM192 426.666667m-106.666667 0a106.666667 106.666667 0 1 1 213.333334 0 106.666667 106.666667 0 1 1-213.333334 0ZM853.333333 490.666667h-64v-128h64c36.266667 0 64 27.733333 64 64s-27.733333 64-64 64zM396.8 17.066667c-19.2-12.8-53.333333-25.6-98.133333-29.866667-12.8-2.133333-25.6 6.4-29.866667 21.333333L174.933333 300.8S362.666667 433.066667 362.666667 277.333333c0-117.333333 32-179.2 46.933333-202.666666 10.666667-14.933333 10.666667-34.133333 0-49.066667-4.266667-4.266667-8.533333-6.4-12.8-8.533333zM192 277.333333h213.333333V576H192c-23.466667 0-42.666667-19.2-42.666667-42.666667v-213.333333c0-23.466667 19.2-42.666667 42.666667-42.666667zM810.666667 85.333333c-23.466667 0-42.666667 19.2-42.666667 42.666667V725.333333c0 23.466667 19.2 42.666667 42.666667 42.666667s42.666667-19.2 42.666666-42.666667v-597.333333c0-23.466667-19.2-42.666667-42.666666-42.666667z"  horiz-adv-x="1024" />

    
    <glyph glyph-name="approval" unicode="&#58884;" d="M512 832l100.266667-76.8 123.733333 17.066667 46.933333-117.333334 117.333334-46.933333-17.066667-123.733333L960 384l-76.8-100.266667 17.066667-123.733333-117.333334-46.933333-46.933333-117.333334-123.733333 17.066667L512-64l-100.266667 76.8-123.733333-17.066667-46.933333 117.333334-117.333334 46.933333 17.066667 123.733333L64 384l76.8 100.266667-17.066667 123.733333 117.333334 46.933333 46.933333 117.333334 123.733333-17.066667zM738.133333 584.533333L448 294.4l-119.466667 119.466667-59.733333-59.733334 179.2-179.2 349.866667 349.866667z"  horiz-adv-x="1024" />

    
    <glyph glyph-name="alarm_clock" unicode="&#58884;" d="M821.333333-55.466667l-85.333333 85.333334 44.8 44.8 85.333333-85.333334c12.8-12.8 12.8-32 0-44.8-10.666667-10.666667-32-10.666667-44.8 0zM202.666667-55.466667l85.333333 85.333334-44.8 44.8-85.333333-85.333334c-12.8-12.8-12.8-32 0-44.8 10.666667-10.666667 32-10.666667 44.8 0zM512 384m-426.666667 0a426.666667 426.666667 0 1 1 853.333334 0 426.666667 426.666667 0 1 1-853.333334 0ZM512 384m-341.333333 0a341.333333 341.333333 0 1 1 682.666666 0 341.333333 341.333333 0 1 1-682.666666 0ZM322.048 181.76l-12.074667 12.074667 196.074667 196.074666 12.074667-12.053333zM490.666667 661.333333h42.666666v-277.333333h-42.666666zM667.413333 263.381333L632.746667 228.693333l-138.752 138.752 34.688 34.709334zM512 384m-42.666667 0a42.666667 42.666667 0 1 1 85.333334 0 42.666667 42.666667 0 1 1-85.333334 0ZM512 384m-21.333333 0a21.333333 21.333333 0 1 1 42.666666 0 21.333333 21.333333 0 1 1-42.666666 0ZM469.333333 874.666667h85.333334v-64h-85.333334zM947.2 550.4c53.333333 74.666667 44.8 179.2-21.333333 245.333333-66.133333 66.133333-170.666667 74.666667-245.333334 21.333334l266.666667-266.666667zM76.8 550.4c-53.333333 74.666667-44.8 179.2 21.333333 245.333333 66.133333 66.133333 170.666667 74.666667 245.333334 21.333334L76.8 550.4z"  horiz-adv-x="1024" />

    
    <glyph glyph-name="approve" unicode="&#58885;" d="M810.666667 341.333333m-85.333334 0a85.333333 85.333333 0 1 1 170.666667 0 85.333333 85.333333 0 1 1-170.666667 0ZM213.333333 341.333333m-85.333333 0a85.333333 85.333333 0 1 1 170.666667 0 85.333333 85.333333 0 1 1-170.666667 0ZM832 490.666667c0 270.933333-640 177.066667-640 0v-213.333334c0-177.066667 142.933333-320 320-320s320 142.933333 320 320V490.666667zM512 810.666667C324.266667 810.666667 170.666667 657.066667 170.666667 469.333333v-74.666666l44.8-12.8V490.666667l416 134.4 174.933333-134.4v-108.8l44.8 12.8V469.333333C853.333333 629.333333 738.133333 810.666667 512 810.666667zM695.466667 499.2L475.733333 279.466667 371.2 384l-59.733333-59.733333 164.266666-164.266667 279.466667 279.466667z"  horiz-adv-x="1024" />

    
    <glyph glyph-name="area_chart" unicode="&#58885;" d="M896 106.666667H128V362.666667l213.333333 320 298.666667-149.333334L896 768zM896 0H128V213.333333l213.333333 170.666667 298.666667-42.666667 256 192z"  horiz-adv-x="1024" />

    
    <glyph glyph-name="assistant" unicode="&#58886;" d="M213.333333 341.333333m-85.333333 0a85.333333 85.333333 0 1 1 170.666667 0 85.333333 85.333333 0 1 1-170.666667 0ZM810.666667 341.333333m-85.333334 0a85.333333 85.333333 0 1 1 170.666667 0 85.333333 85.333333 0 1 1-170.666667 0ZM832 490.666667c0 270.933333-640 177.066667-640 0v-213.333334c0-177.066667 142.933333-320 320-320s320 142.933333 320 320V490.666667zM512 832C311.466667 832 149.333333 669.866667 149.333333 469.333333v-72.533333L192 362.666667v64l448 209.066666 192-209.066666v-64l42.666667 34.133333V469.333333c0 170.666667-121.6 362.666667-362.666667 362.666667zM661.333333 341.333333m-42.666666 0a42.666667 42.666667 0 1 1 85.333333 0 42.666667 42.666667 0 1 1-85.333333 0ZM362.666667 341.333333m-42.666667 0a42.666667 42.666667 0 1 1 85.333333 0 42.666667 42.666667 0 1 1-85.333333 0ZM917.333333 384c-12.8 0-21.333333-8.533333-21.333333-21.333333v149.333333c0 187.733333-153.6 341.333333-341.333333 341.333333h-149.333334c-12.8 0-21.333333-8.533333-21.333333-21.333333s8.533333-21.333333 21.333333-21.333333h149.333334c164.266667 0 298.666667-134.4 298.666666-298.666667v-213.333333c0-12.8 8.533333-21.333333 21.333334-21.333334s21.333333 8.533333 21.333333 21.333334v-42.666667c0-83.2-66.133333-149.333333-149.333333-149.333333H512c-12.8 0-21.333333-8.533333-21.333333-21.333334s8.533333-21.333333 21.333333-21.333333h234.666667c106.666667 0 192 85.333333 192 192v106.666667c0 12.8-8.533333 21.333333-21.333334 21.333333zM917.333333 426.666667h-21.333333c-23.466667 0-42.666667-19.2-42.666667-42.666667v-85.333333c0-23.466667 19.2-42.666667 42.666667-42.666667h21.333333c23.466667 0 42.666667 19.2 42.666667 42.666667v85.333333c0 23.466667-19.2 42.666667-42.666667 42.666667zM512 85.333333m-42.666667 0a42.666667 42.666667 0 1 1 85.333334 0 42.666667 42.666667 0 1 1-85.333334 0Z"  horiz-adv-x="1024" />

    
    <glyph glyph-name="bar_chart" unicode="&#58887;" d="M405.333333 426.666667h213.333334v-426.666667H405.333333zM128 640h213.333333v-640H128zM682.666667 768h213.333333v-768H682.666667z"  horiz-adv-x="1024" />

    
    <glyph glyph-name="automatic" unicode="&#58887;" d="M832-21.333333H192c-46.933333 0-85.333333 38.4-85.333333 85.333333V704c0 46.933333 38.4 85.333333 85.333333 85.333333h640c46.933333 0 85.333333-38.4 85.333333-85.333333v-640c0-46.933333-38.4-85.333333-85.333333-85.333333zM716.8 354.133333c2.133333 8.533333 2.133333 19.2 2.133333 29.866667s0 19.2-2.133333 29.866667l59.733333 42.666666c6.4 4.266667 8.533333 12.8 4.266667 19.2l-57.6 98.133334c-4.266667 6.4-10.666667 8.533333-17.066667 6.4L640 548.266667c-14.933333 12.8-32 21.333333-51.2 29.866666l-6.4 72.533334c0 6.4-6.4 12.8-12.8 12.8h-113.066667c-6.4 0-12.8-6.4-12.8-12.8l-8.533333-74.666667c-19.2-6.4-34.133333-17.066667-51.2-29.866667L317.866667 576c-6.4 2.133333-14.933333 0-17.066667-6.4l-57.6-98.133333c-4.266667-6.4-2.133333-14.933333 4.266667-19.2l59.733333-42.666667c-2.133333-8.533333-2.133333-19.2-2.133333-29.866667s0-19.2 2.133333-29.866666l-59.733333-42.666667c-6.4-4.266667-8.533333-12.8-4.266667-19.2l57.6-98.133333c4.266667-6.4 10.666667-8.533333 17.066667-6.4L384 213.333333c14.933333-12.8 32-21.333333 51.2-29.866666l6.4-72.533334c0-6.4 6.4-12.8 12.8-12.8h113.066667c6.4 0 12.8 6.4 12.8 12.8l6.4 72.533334c19.2 6.4 34.133333 17.066667 51.2 29.866666l66.133333-29.866666c6.4-2.133333 14.933333 0 17.066667 6.4l57.6 98.133333c4.266667 6.4 2.133333 14.933333-4.266667 19.2l-57.6 46.933333zM512 277.333333c-59.733333 0-106.666667 46.933333-106.666667 106.666667s46.933333 106.666667 106.666667 106.666667 106.666667-46.933333 106.666667-106.666667-46.933333-106.666667-106.666667-106.666667z"  horiz-adv-x="1024" />

    
    <glyph glyph-name="bearish" unicode="&#58888;" d="M853.333333 170.666667h85.333334v-213.333334h-85.333334zM725.333333 277.333333h85.333334v-320h-85.333334zM597.333333 192h85.333334v-234.666667h-85.333334zM469.333333 362.666667h85.333334v-405.333334h-85.333334zM341.333333 298.666667h85.333334v-341.333334h-85.333334zM213.333333 384h85.333334v-426.666667h-85.333334zM85.333333 490.666667h85.333334v-533.333334H85.333333zM725.333333 614.4l-85.333333-85.333333-213.333333 213.333333-106.666667-106.666667-162.133333 162.133334-59.733334-59.733334L320 516.266667l106.666667 106.666666 213.333333-213.333333 85.333333 85.333333 130.133334-130.133333 59.733333 59.733333zM938.666667 341.333333h-192l192 192z"  horiz-adv-x="1024" />

    
    <glyph glyph-name="bad_decision" unicode="&#58887;" d="M810.666667 341.333333m-85.333334 0a85.333333 85.333333 0 1 1 170.666667 0 85.333333 85.333333 0 1 1-170.666667 0ZM213.333333 341.333333m-85.333333 0a85.333333 85.333333 0 1 1 170.666667 0 85.333333 85.333333 0 1 1-170.666667 0ZM832 490.666667c0 270.933333-640 177.066667-640 0v-213.333334c0-177.066667 142.933333-320 320-320s320 142.933333 320 320V490.666667zM512 810.666667C324.266667 810.666667 170.666667 657.066667 170.666667 469.333333v-74.666666l44.8-12.8V490.666667l416 134.4 174.933333-134.4v-108.8l44.8 12.8V469.333333C853.333333 629.333333 738.133333 810.666667 512 810.666667zM341.333333 384h341.333334v-85.333333H341.333333z"  horiz-adv-x="1024" />

    
    <glyph glyph-name="biotech" unicode="&#58890;" d="M768 810.666667c0-198.4-128-281.6-273.066667-379.733334C343.466667 330.666667 170.666667 217.6 170.666667-42.666667h85.333333c0 215.466667 138.666667 307.2 285.866667 403.2C686.933333 456.533333 853.333333 567.466667 853.333333 810.666667h-85.333333zM810.666667 21.333333H234.666667c-12.8 0-21.333333 8.533333-21.333334 21.333334s8.533333 21.333333 21.333334 21.333333h576c12.8 0 21.333333-8.533333 21.333333-21.333333s-8.533333-21.333333-21.333333-21.333334zM768 106.666667H256c-12.8 0-21.333333 8.533333-21.333333 21.333333s8.533333 21.333333 21.333333 21.333333h512c12.8 0 21.333333-8.533333 21.333333-21.333333s-8.533333-21.333333-21.333333-21.333333zM725.333333 192H298.666667c-12.8 0-21.333333 8.533333-21.333334 21.333333s8.533333 21.333333 21.333334 21.333334h426.666666c12.8 0 21.333333-8.533333 21.333334-21.333334s-8.533333-21.333333-21.333334-21.333333zM618.666667 277.333333H405.333333c-12.8 0-21.333333 8.533333-21.333333 21.333334s8.533333 21.333333 21.333333 21.333333h213.333334c12.8 0 21.333333-8.533333 21.333333-21.333333s-8.533333-21.333333-21.333333-21.333334zM789.333333 704H213.333333c-12.8 0-21.333333 8.533333-21.333333 21.333333s8.533333 21.333333 21.333333 21.333334h576c12.8 0 21.333333-8.533333 21.333334-21.333334s-8.533333-21.333333-21.333334-21.333333zM768 618.666667H256c-12.8 0-21.333333 8.533333-21.333333 21.333333s8.533333 21.333333 21.333333 21.333333h512c12.8 0 21.333333-8.533333 21.333333-21.333333s-8.533333-21.333333-21.333333-21.333333zM725.333333 533.333333H298.666667c-12.8 0-21.333333 8.533333-21.333334 21.333334s8.533333 21.333333 21.333334 21.333333h426.666666c12.8 0 21.333333-8.533333 21.333334-21.333333s-8.533333-21.333333-21.333334-21.333334zM618.666667 448H405.333333c-12.8 0-21.333333 8.533333-21.333333 21.333333s8.533333 21.333333 21.333333 21.333334h213.333334c12.8 0 21.333333-8.533333 21.333333-21.333334s-8.533333-21.333333-21.333333-21.333333zM853.333333-42.666667h-85.333333c0 215.466667-138.666667 307.2-285.866667 403.2C337.066667 456.533333 170.666667 567.466667 170.666667 810.666667h85.333333c0-198.4 128-281.6 273.066667-379.733334C680.533333 330.666667 853.333333 217.6 853.333333-42.666667z"  horiz-adv-x="1024" />

    
    <glyph glyph-name="biohazard" unicode="&#58890;" d="M512 618.666667c-153.6 0-277.333333-123.733333-277.333333-277.333334s123.733333-277.333333 277.333333-277.333333 277.333333 123.733333 277.333333 277.333333-123.733333 277.333333-277.333333 277.333334z m0-469.333334c-106.666667 0-192 85.333333-192 192s85.333333 192 192 192 192-85.333333 192-192-85.333333-192-192-192zM181.333333 354.133333c85.333333 46.933333 192 23.466667 245.333334-53.333333 2.133333-2.133333 4.266667-2.133333 6.4-2.133333l25.6 14.933333c2.133333 2.133333 4.266667 4.266667 2.133333 6.4 0 4.266667-2.133333 8.533333-2.133333 12.8v4.266667 4.266666 4.266667c0 2.133333 0 2.133333 2.133333 4.266667 0 2.133333 0 2.133333 2.133333 4.266666 0 0 0 2.133333 2.133334 2.133334 0 0 0 2.133333 2.133333 2.133333 0 0 0 2.133333 2.133333 2.133333l2.133334 2.133334 2.133333 2.133333 2.133333 2.133333 2.133334 2.133334 2.133333 2.133333h2.133333c4.266667 2.133333 8.533333 4.266667 10.666667 4.266667 2.133333 0 4.266667 2.133333 4.266667 6.4v27.733333c0 2.133333-2.133333 4.266667-4.266667 4.266667-96 8.533333-170.666667 87.466667-170.666667 183.466666 0 87.466667 64 162.133333 147.2 179.2 2.133333 0 4.266667 2.133333 4.266667 6.4v10.666667c0 2.133333-2.133333 4.266667-4.266667 4.266667-119.466667-19.2-213.333333-123.733333-213.333333-249.6 0-27.733333 4.266667-55.466667 12.8-81.066667-25.6-4.266667-53.333333-14.933333-76.8-27.733333-110.933333-64-155.733333-196.266667-110.933333-309.333334 2.133333-2.133333 4.266667-2.133333 6.4-2.133333l6.4 4.266667c2.133333 2.133333 4.266667 4.266667 2.133333 6.4-25.6 81.066667 6.4 172.8 85.333333 215.466666z m650.666667 85.333334c-25.6 14.933333-51.2 23.466667-76.8 27.733333 8.533333 25.6 12.8 51.2 12.8 81.066667 0 125.866667-93.866667 230.4-217.6 249.6-2.133333 0-4.266667-2.133333-4.266667-4.266667v-8.533333c0-2.133333 2.133333-4.266667 4.266667-6.4 85.333333-17.066667 147.2-91.733333 147.2-179.2 0-96-74.666667-174.933333-170.666667-183.466667-2.133333 0-4.266667-2.133333-4.266666-4.266667V384c0-2.133333 2.133333-4.266667 4.266666-6.4 4.266667-2.133333 8.533333-2.133333 12.8-4.266667l2.133334-2.133333c2.133333 0 2.133333-2.133333 2.133333-2.133333l6.4-6.4 2.133333-2.133334 2.133334-2.133333v-4.266667s0-2.133333 2.133333-2.133333c0-2.133333 0-2.133333 2.133333-4.266667v-14.933333c0-4.266667 0-8.533333-2.133333-12.8 0-2.133333 0-4.266667 2.133333-6.4l25.6-14.933333c2.133333-2.133333 4.266667 0 6.4 2.133333 55.466667 76.8 162.133333 102.4 245.333334 53.333333 76.8-44.8 110.933333-134.4 83.2-215.466666 0-2.133333 0-4.266667 2.133333-6.4l6.4-4.266667c2.133333-2.133333 4.266667 0 6.4 2.133333 53.333333 115.2 8.533333 247.466667-102.4 309.333334z m-174.933333-403.2c-85.333333 46.933333-117.333333 151.466667-74.666667 236.8 2.133333 2.133333 0 4.266667-2.133333 6.4l-25.6 14.933333c-2.133333 2.133333-4.266667 0-6.4 0-4.266667-2.133333-6.4-6.4-10.666667-6.4-2.133333 0-2.133333-2.133333-4.266667-2.133333s-2.133333 0-4.266666-2.133334c-2.133333 0-6.4-2.133333-8.533334-2.133333h-4.266666-2.133334-2.133333-2.133333-2.133334-2.133333-10.666667c-2.133333 0-2.133333 0-4.266666 2.133333 0 0-2.133333 0-2.133334 2.133334h-2.133333c-4.266667 2.133333-6.4 4.266667-10.666667 6.4-2.133333 2.133333-4.266667 2.133333-6.4 0l-25.6-14.933334c-2.133333-2.133333-2.133333-4.266667-2.133333-6.4 40.533333-85.333333 8.533333-187.733333-74.666667-236.8-76.8-44.8-174.933333-27.733333-232.533333 36.266667-2.133333 2.133333-4.266667 2.133333-6.4 2.133333l-6.4-4.266666c-2.133333-2.133333-2.133333-4.266667-2.133333-6.4 76.8-96 217.6-123.733333 328.533333-59.733334 25.6 14.933333 46.933333 32 64 51.2 17.066667-19.2 38.4-38.4 64-51.2 110.933333-64 249.6-34.133333 328.533333 59.733334 2.133333 2.133333 0 4.266667-2.133333 6.4l-6.4 6.4c-2.133333 2.133333-4.266667 0-6.4-2.133334-57.6-61.866667-155.733333-78.933333-232.533333-36.266666z"  horiz-adv-x="1024" />

    
    <glyph glyph-name="bullish" unicode="&#58892;" d="M853.333333 448h85.333334v-490.666667h-85.333334zM725.333333 298.666667h85.333334v-341.333334h-85.333334zM597.333333 405.333333h85.333334v-448h-85.333334zM469.333333 277.333333h85.333334v-320h-85.333334zM341.333333 213.333333h85.333334v-256h-85.333334zM213.333333 256h85.333334v-298.666667h-85.333334zM85.333333 170.666667h85.333334v-213.333334H85.333333zM855.466667 701.866667L725.333333 571.733333l-85.333333 85.333334-213.333333-213.333334-106.666667 106.666667L98.133333 328.533333l59.733334-59.733333 162.133333 162.133333 106.666667-106.666666 213.333333 213.333333 85.333333-85.333333 189.866667 189.866666zM938.666667 725.333333h-192l192-192z"  horiz-adv-x="1024" />

    
    <glyph glyph-name="businesswoman" unicode="&#58895;" d="M341.333333 576h341.333334v-384H341.333333zM853.333333-42.666667H170.666667c0 234.666667 234.666667 277.333333 234.666666 277.333334h213.333334s234.666667-42.666667 234.666666-277.333334zM512 106.666667c-46.933333 0-106.666667 128-106.666667 128v128h213.333334v-128s-59.733333-128-106.666667-128zM704 597.333333c0 162.133333-384 106.666667-384 0v-149.333333c0-106.666667 85.333333-192 192-192s192 85.333333 192 192v149.333333zM512 810.666667C381.866667 810.666667 192 738.133333 192 313.6l149.333333-100.266667V490.666667l256 149.333333 85.333334-106.666667v-320l149.333333 128c0 85.333333-14.933333 426.666667-234.666667 426.666667l-21.333333 42.666667h-64zM512 85.333333c-93.866667 0-106.666667 149.333333-106.666667 149.333334s53.333333-85.333333 106.666667-85.333334 106.666667 85.333333 106.666667 85.333334-12.8-149.333333-106.666667-149.333334zM597.333333 448m-21.333333 0a21.333333 21.333333 0 1 1 42.666667 0 21.333333 21.333333 0 1 1-42.666667 0ZM426.666667 448m-21.333334 0a21.333333 21.333333 0 1 1 42.666667 0 21.333333 21.333333 0 1 1-42.666667 0Z"  horiz-adv-x="1024" />

    
    <glyph glyph-name="businessman" unicode="&#58895;" d="M512 106.666667l-106.666667 128v128h213.333334v-128zM704 490.666667m-42.666667 0a42.666667 42.666667 0 1 1 85.333334 0 42.666667 42.666667 0 1 1-85.333334 0ZM320 490.666667m-42.666667 0a42.666667 42.666667 0 1 1 85.333334 0 42.666667 42.666667 0 1 1-85.333334 0ZM704 618.666667c0 162.133333-384 106.666667-384 0v-149.333334c0-106.666667 85.333333-192 192-192s192 85.333333 192 192v149.333334zM512 810.666667c-130.133333 0-213.333333-104.533333-213.333333-234.666667v-49.066667l42.666666-36.266666v106.666666l256 85.333334 85.333334-85.333334v-106.666666l42.666666 36.266666V576c0 85.333333-21.333333 170.666667-128 192l-21.333333 42.666667h-64zM597.333333 490.666667m-21.333333 0a21.333333 21.333333 0 1 1 42.666667 0 21.333333 21.333333 0 1 1-42.666667 0ZM426.666667 490.666667m-21.333334 0a21.333333 21.333333 0 1 1 42.666667 0 21.333333 21.333333 0 1 1-42.666667 0ZM512-21.333333l-106.666667 256 106.666667-21.333334 106.666667 21.333334zM490.666667 149.333333l-14.933334-96 36.266667-85.333333 36.266667 85.333333L533.333333 149.333333l21.333334 21.333334-42.666667 42.666666-42.666667-42.666666zM618.666667 234.666667l-106.666667-256-106.666667 256S170.666667 192 170.666667-42.666667h682.666666c0 234.666667-234.666667 277.333333-234.666666 277.333334z"  horiz-adv-x="1024" />

    
    <glyph glyph-name="calculator" unicode="&#58896;" d="M853.333333 554.666667H170.666667v-512c0-46.933333 38.4-85.333333 85.333333-85.333334h512c46.933333 0 85.333333 38.4 85.333333 85.333334V554.666667zM768 810.666667H256C209.066667 810.666667 170.666667 772.266667 170.666667 725.333333v-192h682.666666V725.333333c0 46.933333-38.4 85.333333-85.333333 85.333334zM768 597.333333H256c-12.8 0-21.333333 8.533333-21.333333 21.333334V725.333333c0 12.8 8.533333 21.333333 21.333333 21.333334h512c12.8 0 21.333333-8.533333 21.333333-21.333334v-106.666666c0-12.8-8.533333-21.333333-21.333333-21.333334zM704 682.666667h42.666667v-42.666667h-42.666667zM618.666667 682.666667h42.666666v-42.666667h-42.666666zM768 405.333333h-64c-12.8 0-21.333333 8.533333-21.333333 21.333334v42.666666c0 12.8 8.533333 21.333333 21.333333 21.333334h64c12.8 0 21.333333-8.533333 21.333333-21.333334v-42.666666c0-12.8-8.533333-21.333333-21.333333-21.333334zM320 405.333333h-64c-12.8 0-21.333333 8.533333-21.333333 21.333334v42.666666c0 12.8 8.533333 21.333333 21.333333 21.333334h64c12.8 0 21.333333-8.533333 21.333333-21.333334v-42.666666c0-12.8-8.533333-21.333333-21.333333-21.333334zM469.333333 405.333333h-64c-12.8 0-21.333333 8.533333-21.333333 21.333334v42.666666c0 12.8 8.533333 21.333333 21.333333 21.333334h64c12.8 0 21.333333-8.533333 21.333334-21.333334v-42.666666c0-12.8-8.533333-21.333333-21.333334-21.333334zM618.666667 405.333333h-64c-12.8 0-21.333333 8.533333-21.333334 21.333334v42.666666c0 12.8 8.533333 21.333333 21.333334 21.333334h64c12.8 0 21.333333-8.533333 21.333333-21.333334v-42.666666c0-12.8-8.533333-21.333333-21.333333-21.333334zM320 277.333333h-64c-12.8 0-21.333333 8.533333-21.333333 21.333334v42.666666c0 12.8 8.533333 21.333333 21.333333 21.333334h64c12.8 0 21.333333-8.533333 21.333333-21.333334v-42.666666c0-12.8-8.533333-21.333333-21.333333-21.333334zM469.333333 277.333333h-64c-12.8 0-21.333333 8.533333-21.333333 21.333334v42.666666c0 12.8 8.533333 21.333333 21.333333 21.333334h64c12.8 0 21.333333-8.533333 21.333334-21.333334v-42.666666c0-12.8-8.533333-21.333333-21.333334-21.333334zM618.666667 277.333333h-64c-12.8 0-21.333333 8.533333-21.333334 21.333334v42.666666c0 12.8 8.533333 21.333333 21.333334 21.333334h64c12.8 0 21.333333-8.533333 21.333333-21.333334v-42.666666c0-12.8-8.533333-21.333333-21.333333-21.333334zM320 149.333333h-64c-12.8 0-21.333333 8.533333-21.333333 21.333334v42.666666c0 12.8 8.533333 21.333333 21.333333 21.333334h64c12.8 0 21.333333-8.533333 21.333333-21.333334v-42.666666c0-12.8-8.533333-21.333333-21.333333-21.333334zM469.333333 149.333333h-64c-12.8 0-21.333333 8.533333-21.333333 21.333334v42.666666c0 12.8 8.533333 21.333333 21.333333 21.333334h64c12.8 0 21.333333-8.533333 21.333334-21.333334v-42.666666c0-12.8-8.533333-21.333333-21.333334-21.333334zM618.666667 149.333333h-64c-12.8 0-21.333333 8.533333-21.333334 21.333334v42.666666c0 12.8 8.533333 21.333333 21.333334 21.333334h64c12.8 0 21.333333-8.533333 21.333333-21.333334v-42.666666c0-12.8-8.533333-21.333333-21.333333-21.333334zM320 21.333333h-64c-12.8 0-21.333333 8.533333-21.333333 21.333334v42.666666c0 12.8 8.533333 21.333333 21.333333 21.333334h64c12.8 0 21.333333-8.533333 21.333333-21.333334v-42.666666c0-12.8-8.533333-21.333333-21.333333-21.333334zM469.333333 21.333333h-64c-12.8 0-21.333333 8.533333-21.333333 21.333334v42.666666c0 12.8 8.533333 21.333333 21.333333 21.333334h64c12.8 0 21.333333-8.533333 21.333334-21.333334v-42.666666c0-12.8-8.533333-21.333333-21.333334-21.333334zM618.666667 21.333333h-64c-12.8 0-21.333333 8.533333-21.333334 21.333334v42.666666c0 12.8 8.533333 21.333333 21.333334 21.333334h64c12.8 0 21.333333-8.533333 21.333333-21.333334v-42.666666c0-12.8-8.533333-21.333333-21.333333-21.333334zM768 277.333333h-64c-12.8 0-21.333333 8.533333-21.333333 21.333334v42.666666c0 12.8 8.533333 21.333333 21.333333 21.333334h64c12.8 0 21.333333-8.533333 21.333333-21.333334v-42.666666c0-12.8-8.533333-21.333333-21.333333-21.333334zM768 149.333333h-64c-12.8 0-21.333333 8.533333-21.333333 21.333334v42.666666c0 12.8 8.533333 21.333333 21.333333 21.333334h64c12.8 0 21.333333-8.533333 21.333333-21.333334v-42.666666c0-12.8-8.533333-21.333333-21.333333-21.333334zM768 21.333333h-64c-12.8 0-21.333333 8.533333-21.333333 21.333334v42.666666c0 12.8 8.533333 21.333333 21.333333 21.333334h64c12.8 0 21.333333-8.533333 21.333333-21.333334v-42.666666c0-12.8-8.533333-21.333333-21.333333-21.333334z"  horiz-adv-x="1024" />

    
    <glyph glyph-name="calendar" unicode="&#58896;" d="M106.666667 85.333333V597.333333h810.666666v-512c0-46.933333-38.4-85.333333-85.333333-85.333333H192c-46.933333 0-85.333333 38.4-85.333333 85.333333zM917.333333 682.666667v-128H106.666667v128c0 46.933333 38.4 85.333333 85.333333 85.333333h640c46.933333 0 85.333333-38.4 85.333333-85.333333zM704 682.666667m-64 0a64 64 0 1 1 128 0 64 64 0 1 1-128 0ZM320 682.666667m-64 0a64 64 0 1 1 128 0 64 64 0 1 1-128 0ZM704 832c-23.466667 0-42.666667-19.2-42.666667-42.666667v-106.666666c0-23.466667 19.2-42.666667 42.666667-42.666667s42.666667 19.2 42.666667 42.666667V789.333333c0 23.466667-19.2 42.666667-42.666667 42.666667zM320 832c-23.466667 0-42.666667-19.2-42.666667-42.666667v-106.666666c0-23.466667 19.2-42.666667 42.666667-42.666667s42.666667 19.2 42.666667 42.666667V789.333333c0 23.466667-19.2 42.666667-42.666667 42.666667zM277.333333 469.333333h85.333334v-85.333333h-85.333334zM405.333333 469.333333h85.333334v-85.333333h-85.333334zM533.333333 469.333333h85.333334v-85.333333h-85.333334zM661.333333 469.333333h85.333334v-85.333333h-85.333334zM277.333333 341.333333h85.333334v-85.333333h-85.333334zM405.333333 341.333333h85.333334v-85.333333h-85.333334zM533.333333 341.333333h85.333334v-85.333333h-85.333334zM661.333333 341.333333h85.333334v-85.333333h-85.333334zM277.333333 213.333333h85.333334v-85.333333h-85.333334zM405.333333 213.333333h85.333334v-85.333333h-85.333334zM533.333333 213.333333h85.333334v-85.333333h-85.333334zM661.333333 213.333333h85.333334v-85.333333h-85.333334z"  horiz-adv-x="1024" />

    
    <glyph glyph-name="call_transfer" unicode="&#58897;" d="M836.266667 716.8l-38.4-38.4c-134.4-138.666667-115.2-469.333333 0-588.8l38.4-38.4c10.666667-10.666667 27.733333-10.666667 38.4 0l76.8 78.933333c10.666667 10.666667 10.666667 27.733333 0 38.4l-72.533334 72.533334h-102.4c-27.733333 27.733333-27.733333 258.133333 0 285.866666h102.4l70.4 72.533334c10.666667 10.666667 10.666667 27.733333 0 38.4L874.666667 716.8c-10.666667 10.666667-27.733333 10.666667-38.4 0zM238.933333 716.8l-38.4-38.4c-134.4-138.666667-115.2-469.333333 0-588.8l38.4-38.4c10.666667-10.666667 27.733333-10.666667 38.4 0l76.8 78.933333c10.666667 10.666667 10.666667 27.733333 0 38.4l-72.533333 72.533334H181.333333c-27.733333 27.733333-27.733333 258.133333 0 285.866666h102.4l70.4 72.533334c10.666667 10.666667 10.666667 27.733333 0 38.4L277.333333 716.8c-10.666667 10.666667-27.733333 10.666667-38.4 0zM539.733333 499.2l115.2-115.2-115.2-115.2zM341.333333 426.666667h234.666667v-85.333334H341.333333z"  horiz-adv-x="1024" />

    
    <glyph glyph-name="callback" unicode="&#58897;" d="M563.2 172.8s85.333333 55.466667 102.4 64c17.066667 8.533333 36.266667 12.8 46.933333 4.266667 17.066667-10.666667 160-104.533333 172.8-113.066667 12.8-8.533333 17.066667-32 2.133334-55.466667-17.066667-23.466667-91.733333-117.333333-123.733334-115.2-32 0-179.2-8.533333-433.066666 243.2C76.8 454.4 85.333333 601.6 85.333333 633.6s91.733333 108.8 115.2 123.733333c23.466667 17.066667 46.933333 10.666667 55.466667-2.133333 8.533333-12.8 102.4-155.733333 113.066667-172.8 6.4-10.666667 4.266667-29.866667-4.266667-46.933333-8.533333-17.066667-64-102.4-64-102.4s14.933333-59.733333 106.666667-153.6c93.866667-91.733333 155.733333-106.666667 155.733333-106.666667zM746.666667 704H533.333333v-85.333333h213.333334c23.466667 0 42.666667-19.2 42.666666-42.666667v-213.333333h85.333334V576c0 70.4-57.6 128-128 128zM597.333333 554.666667l-142.933333 106.666666L597.333333 768z"  horiz-adv-x="1024" />

    
    <glyph glyph-name="checkmark" unicode="&#58901;" d="M866.133333 637.866667L362.666667 134.4l-204.8 204.8L98.133333 277.333333 362.666667 14.933333l563.2 563.2z"  horiz-adv-x="1024" />

    
    <glyph glyph-name="cell_phone" unicode="&#58902;" d="M256 42.666667V682.666667h426.666667c46.933333 0 85.333333-38.4 85.333333-85.333334v-554.666666c0-46.933333-38.4-85.333333-85.333333-85.333334H341.333333c-46.933333 0-85.333333 38.4-85.333333 85.333334zM682.666667 618.666667H341.333333c-12.8 0-21.333333-8.533333-21.333333-21.333334v-170.666666c0-12.8 8.533333-21.333333 21.333333-21.333334h341.333334c12.8 0 21.333333 8.533333 21.333333 21.333334v170.666666c0 12.8-8.533333 21.333333-21.333333 21.333334zM405.333333 256h-42.666666c-12.8 0-21.333333 8.533333-21.333334 21.333333v21.333334c0 12.8 8.533333 21.333333 21.333334 21.333333h42.666666c12.8 0 21.333333-8.533333 21.333334-21.333333v-21.333334c0-12.8-8.533333-21.333333-21.333334-21.333333zM533.333333 256h-42.666666c-12.8 0-21.333333 8.533333-21.333334 21.333333v21.333334c0 12.8 8.533333 21.333333 21.333334 21.333333h42.666666c12.8 0 21.333333-8.533333 21.333334-21.333333v-21.333334c0-12.8-8.533333-21.333333-21.333334-21.333333zM661.333333 256h-42.666666c-12.8 0-21.333333 8.533333-21.333334 21.333333v21.333334c0 12.8 8.533333 21.333333 21.333334 21.333333h42.666666c12.8 0 21.333333-8.533333 21.333334-21.333333v-21.333334c0-12.8-8.533333-21.333333-21.333334-21.333333zM405.333333 149.333333h-42.666666c-12.8 0-21.333333 8.533333-21.333334 21.333334v21.333333c0 12.8 8.533333 21.333333 21.333334 21.333333h42.666666c12.8 0 21.333333-8.533333 21.333334-21.333333v-21.333333c0-12.8-8.533333-21.333333-21.333334-21.333334zM533.333333 149.333333h-42.666666c-12.8 0-21.333333 8.533333-21.333334 21.333334v21.333333c0 12.8 8.533333 21.333333 21.333334 21.333333h42.666666c12.8 0 21.333333-8.533333 21.333334-21.333333v-21.333333c0-12.8-8.533333-21.333333-21.333334-21.333334zM661.333333 149.333333h-42.666666c-12.8 0-21.333333 8.533333-21.333334 21.333334v21.333333c0 12.8 8.533333 21.333333 21.333334 21.333333h42.666666c12.8 0 21.333333-8.533333 21.333334-21.333333v-21.333333c0-12.8-8.533333-21.333333-21.333334-21.333334zM405.333333 42.666667h-42.666666c-12.8 0-21.333333 8.533333-21.333334 21.333333v21.333333c0 12.8 8.533333 21.333333 21.333334 21.333334h42.666666c12.8 0 21.333333-8.533333 21.333334-21.333334v-21.333333c0-12.8-8.533333-21.333333-21.333334-21.333333zM533.333333 42.666667h-42.666666c-12.8 0-21.333333 8.533333-21.333334 21.333333v21.333333c0 12.8 8.533333 21.333333 21.333334 21.333334h42.666666c12.8 0 21.333333-8.533333 21.333334-21.333334v-21.333333c0-12.8-8.533333-21.333333-21.333334-21.333333zM661.333333 42.666667h-42.666666c-12.8 0-21.333333 8.533333-21.333334 21.333333v21.333333c0 12.8 8.533333 21.333333 21.333334 21.333334h42.666666c12.8 0 21.333333-8.533333 21.333334-21.333334v-21.333333c0-12.8-8.533333-21.333333-21.333334-21.333333zM341.333333 682.666667h-85.333333V810.666667c0 23.466667 19.2 42.666667 42.666667 42.666666s42.666667-19.2 42.666666-42.666666v-128z"  horiz-adv-x="1024" />

    
    <glyph glyph-name="circuit" unicode="&#58902;" d="M128 682.666667v-597.333334c0-46.933333 38.4-85.333333 85.333333-85.333333h597.333334c46.933333 0 85.333333 38.4 85.333333 85.333333V682.666667c0 46.933333-38.4 85.333333-85.333333 85.333333H213.333333c-46.933333 0-85.333333-38.4-85.333333-85.333333zM140.8 725.333333l128-128c-8.533333-12.8-12.8-27.733333-12.8-42.666666 0-46.933333 38.4-85.333333 85.333333-85.333334s85.333333 38.4 85.333334 85.333334-38.4 85.333333-85.333334 85.333333c-14.933333 0-29.866667-4.266667-42.666666-12.8l-128 128c-12.8-6.4-23.466667-17.066667-29.866667-29.866667z m200.533333-138.666666c17.066667 0 32-14.933333 32-32s-14.933333-32-32-32-32 14.933333-32 32 14.933333 32 32 32zM883.2 42.666667l-128 128c8.533333 12.8 12.8 27.733333 12.8 42.666666 0 46.933333-38.4 85.333333-85.333333 85.333334s-85.333333-38.4-85.333334-85.333334 38.4-85.333333 85.333334-85.333333c14.933333 0 29.866667 4.266667 42.666666 12.8l128-128c12.8 6.4 23.466667 17.066667 29.866667 29.866667zM682.666667 181.333333c-17.066667 0-32 14.933333-32 32s14.933333 32 32 32 32-14.933333 32-32-14.933333-32-32-32zM341.333333 128c46.933333 0 85.333333 38.4 85.333334 85.333333 0 14.933333-4.266667 29.866667-12.8 42.666667L640 482.133333c12.8-8.533333 27.733333-12.8 42.666667-12.8 46.933333 0 85.333333 38.4 85.333333 85.333334s-38.4 85.333333-85.333333 85.333333-85.333333-38.4-85.333334-85.333333c0-14.933333 4.266667-29.866667 12.8-42.666667L384 285.866667c-12.8 8.533333-27.733333 12.8-42.666667 12.8-46.933333 0-85.333333-38.4-85.333333-85.333334s38.4-85.333333 85.333333-85.333333z m341.333334 458.666667c17.066667 0 32-14.933333 32-32s-14.933333-32-32-32-32 14.933333-32 32 14.933333 32 32 32z m-341.333334-341.333334c17.066667 0 32-14.933333 32-32s-14.933333-32-32-32-32 14.933333-32 32 14.933333 32 32 32z"  horiz-adv-x="1024" />

    
    <glyph glyph-name="copyright" unicode="&#58908;" d="M512 384m-448 0a448 448 0 1 1 896 0 448 448 0 1 1-896 0ZM714.666667 296.533333c-12.8-136.533333-119.466667-172.8-198.4-172.8-66.133333 0-204.8 34.133333-204.8 238.933334v32c0 185.6 117.333333 238.933333 206.933333 238.933333 181.333333 0 196.266667-149.333333 198.4-174.933333h-102.4c-6.4 76.8-46.933333 91.733333-96 91.733333-34.133333 0-102.4-10.666667-102.4-153.6V362.666667c-2.133333-160 81.066667-153.6 100.266667-153.6 91.733333 0 91.733333 61.866667 98.133333 87.466666h100.266667z"  horiz-adv-x="1024" />

    
    <glyph glyph-name="data_configuration" unicode="&#58911;" d="M810.666667 746.666667H213.333333c-23.466667 0-42.666667-19.2-42.666666-42.666667v-128c0-23.466667 19.2-42.666667 42.666666-42.666667h597.333334c23.466667 0 42.666667 19.2 42.666666 42.666667V704c0 23.466667-19.2 42.666667-42.666666 42.666667zM810.666667 490.666667H213.333333c-23.466667 0-42.666667-19.2-42.666666-42.666667v-128c0-23.466667 19.2-42.666667 42.666666-42.666667h597.333334c23.466667 0 42.666667 19.2 42.666666 42.666667v128c0 23.466667-19.2 42.666667-42.666666 42.666667zM810.666667 234.666667H213.333333c-23.466667 0-42.666667-19.2-42.666666-42.666667v-128c0-23.466667 19.2-42.666667 42.666666-42.666667h597.333334c23.466667 0 42.666667 19.2 42.666666 42.666667v128c0 23.466667-19.2 42.666667-42.666666 42.666667zM964.266667 83.2c2.133333 8.533333 2.133333 17.066667 2.133333 23.466667s0 17.066667-2.133333 23.466666l49.066666 36.266667c4.266667 4.266667 6.4 10.666667 4.266667 14.933333l-49.066667 83.2c-2.133333 4.266667-8.533333 6.4-14.933333 4.266667l-55.466667-25.6c-12.8 10.666667-27.733333 19.2-42.666666 25.6l-6.4 61.866667c0 6.4-6.4 10.666667-10.666667 10.666666h-96c-6.4 0-10.666667-4.266667-10.666667-10.666666l-6.4-61.866667c-14.933333-6.4-29.866667-14.933333-42.666666-25.6l-55.466667 25.6c-6.4 2.133333-12.8 0-14.933333-4.266667l-49.066667-83.2c-2.133333-4.266667-2.133333-12.8 4.266667-14.933333l49.066666-36.266667c-2.133333-8.533333-2.133333-17.066667-2.133333-23.466666s0-17.066667 2.133333-23.466667l-49.066666-36.266667c-4.266667-4.266667-6.4-10.666667-4.266667-14.933333l49.066667-83.2c2.133333-4.266667 8.533333-6.4 14.933333-4.266667l55.466667 25.6c12.8-10.666667 27.733333-19.2 42.666666-25.6l6.4-61.866666c0-6.4 6.4-10.666667 10.666667-10.666667h96c6.4 0 10.666667 4.266667 10.666667 10.666667l6.4 61.866666c14.933333 6.4 29.866667 14.933333 42.666666 25.6l55.466667-25.6c6.4-2.133333 12.8 0 14.933333 4.266667l49.066667 83.2c2.133333 4.266667 2.133333 12.8-4.266667 14.933333l-49.066666 36.266667zM789.333333-4.266667c-61.866667 0-110.933333 49.066667-110.933333 110.933334 0 61.866667 49.066667 110.933333 110.933333 110.933333 61.866667 0 110.933333-49.066667 110.933334-110.933333 0-61.866667-49.066667-110.933333-110.933334-110.933334zM789.333333 234.666667c-70.4 0-128-57.6-128-128s57.6-128 128-128 128 57.6 128 128-57.6 128-128 128z m0-192c-36.266667 0-64 27.733333-64 64s27.733333 64 64 64 64-27.733333 64-64-27.733333-64-64-64z"  horiz-adv-x="1024" />

    
    <glyph glyph-name="data_recovery" unicode="&#58912;" d="M810.666667 746.666667H213.333333c-23.466667 0-42.666667-19.2-42.666666-42.666667v-128c0-23.466667 19.2-42.666667 42.666666-42.666667h597.333334c23.466667 0 42.666667 19.2 42.666666 42.666667V704c0 23.466667-19.2 42.666667-42.666666 42.666667zM810.666667 490.666667H213.333333c-23.466667 0-42.666667-19.2-42.666666-42.666667v-128c0-23.466667 19.2-42.666667 42.666666-42.666667h597.333334c23.466667 0 42.666667 19.2 42.666666 42.666667v128c0 23.466667-19.2 42.666667-42.666666 42.666667zM810.666667 234.666667H213.333333c-23.466667 0-42.666667-19.2-42.666666-42.666667v-128c0-23.466667 19.2-42.666667 42.666666-42.666667h597.333334c23.466667 0 42.666667 19.2 42.666666 42.666667v128c0 23.466667-19.2 42.666667-42.666666 42.666667zM746.666667 298.666667h128v-426.666667h-128zM597.333333 149.333333h426.666667v-128H597.333333z"  horiz-adv-x="1024" />

    
    <glyph glyph-name="data_encryption" unicode="&#58911;" d="M810.666667 746.666667H213.333333c-23.466667 0-42.666667-19.2-42.666666-42.666667v-128c0-23.466667 19.2-42.666667 42.666666-42.666667h597.333334c23.466667 0 42.666667 19.2 42.666666 42.666667V704c0 23.466667-19.2 42.666667-42.666666 42.666667zM810.666667 490.666667H213.333333c-23.466667 0-42.666667-19.2-42.666666-42.666667v-128c0-23.466667 19.2-42.666667 42.666666-42.666667h535.466667c27.733333 27.733333 104.533333 19.2 104.533333 42.666667v128c0 23.466667-19.2 42.666667-42.666666 42.666667zM733.866667 234.666667H213.333333c-23.466667 0-42.666667-19.2-42.666666-42.666667v-128c0-23.466667 19.2-42.666667 42.666666-42.666667h597.333334c23.466667 0 42.666667 19.2 42.666666 42.666667v51.2c0 66.133333-53.333333 119.466667-119.466666 119.466667zM917.333333-85.333333l-42.666666-42.666667h-42.666667l-42.666667 42.666667V140.8h128V42.666667l-21.333333-21.333334 21.333333-21.333333v-21.333333l-21.333333-21.333334 21.333333-21.333333zM1013.333333 288c-6.4 19.2-21.333333 34.133333-42.666666 38.4-27.733333 6.4-70.4 14.933333-117.333334 14.933333s-89.6-8.533333-117.333333-12.8c-21.333333-4.266667-36.266667-19.2-42.666667-38.4-4.266667-21.333333-10.666667-46.933333-10.666666-76.8s6.4-55.466667 10.666666-74.666666c6.4-19.2 21.333333-34.133333 42.666667-38.4 27.733333-6.4 68.266667-12.8 117.333333-12.8s89.6 8.533333 117.333334 12.8c21.333333 4.266667 36.266667 19.2 42.666666 38.4 6.4 19.2 10.666667 44.8 10.666667 74.666666s-6.4 55.466667-10.666667 74.666667zM915.2 234.666667h-121.6c-12.8 0-23.466667 10.666667-23.466667 23.466666v29.866667c0 6.4 38.4 12.8 85.333334 12.8s85.333333-6.4 85.333333-12.8v-29.866667c-2.133333-12.8-12.8-23.466667-25.6-23.466666zM832 104.533333h21.333333V-128h-21.333333z"  horiz-adv-x="1024" />

    
    <glyph glyph-name="deployment" unicode="&#58915;" d="M789.333333 0H106.666667V213.333333h682.666666c59.733333 0 106.666667-46.933333 106.666667-106.666666s-46.933333-106.666667-106.666667-106.666667zM213.333333 170.666667c-36.266667 0-64-27.733333-64-64s27.733333-64 64-64 64 27.733333 64 64-27.733333 64-64 64z m0-85.333334c-12.8 0-21.333333 8.533333-21.333333 21.333334s8.533333 21.333333 21.333333 21.333333 21.333333-8.533333 21.333334-21.333333-8.533333-21.333333-21.333334-21.333334zM405.333333 170.666667c-36.266667 0-64-27.733333-64-64s27.733333-64 64-64 64 27.733333 64 64-27.733333 64-64 64z m0-85.333334c-12.8 0-21.333333 8.533333-21.333333 21.333334s8.533333 21.333333 21.333333 21.333333 21.333333-8.533333 21.333334-21.333333-8.533333-21.333333-21.333334-21.333334zM789.333333 170.666667c-36.266667 0-64-27.733333-64-64s27.733333-64 64-64 64 27.733333 64 64-27.733333 64-64 64z m0-85.333334c-12.8 0-21.333333 8.533333-21.333333 21.333334s8.533333 21.333333 21.333333 21.333333 21.333333-8.533333 21.333334-21.333333-8.533333-21.333333-21.333334-21.333334zM597.333333 170.666667c-36.266667 0-64-27.733333-64-64s27.733333-64 64-64 64 27.733333 64 64-27.733333 64-64 64z m0-85.333334c-12.8 0-21.333333 8.533333-21.333333 21.333334s8.533333 21.333333 21.333333 21.333333 21.333333-8.533333 21.333334-21.333333-8.533333-21.333333-21.333334-21.333334zM746.666667 234.666667H234.666667c-23.466667 0-42.666667 19.2-42.666667 42.666666V746.666667c0 23.466667 19.2 42.666667 42.666667 42.666666h512c23.466667 0 42.666667-19.2 42.666666-42.666666v-469.333334c0-23.466667-19.2-42.666667-42.666666-42.666666zM565.333333 618.666667h-149.333333c-17.066667 0-32 14.933333-32 32s14.933333 32 32 32h149.333333c17.066667 0 32-14.933333 32-32s-14.933333-32-32-32zM789.333333 234.666667H106.666667v-42.666667h682.666666c46.933333 0 85.333333-38.4 85.333334-85.333333s-38.4-85.333333-85.333334-85.333334H106.666667v-42.666666h682.666666c70.4 0 128 57.6 128 128s-57.6 128-128 128z"  horiz-adv-x="1024" />

    
    <glyph glyph-name="department" unicode="&#58915;" d="M896 0H128V704l384 149.333333 384-149.333333zM128 0h768v-42.666667H128zM426.666667 149.333333h170.666666v-192h-170.666666zM661.333333 320h128v-106.666667h-128zM448 320h128v-106.666667h-128zM234.666667 320h128v-106.666667h-128zM661.333333 149.333333h128v-106.666666h-128zM234.666667 149.333333h128v-106.666666h-128zM661.333333 490.666667h128v-106.666667h-128zM448 490.666667h128v-106.666667h-128zM234.666667 490.666667h128v-106.666667h-128zM661.333333 661.333333h128v-106.666666h-128zM448 661.333333h128v-106.666666h-128zM234.666667 661.333333h128v-106.666666h-128z"  horiz-adv-x="1024" />

    
    <glyph glyph-name="down_right" unicode="&#58922;" d="M938.666667 277.333333L640 526.933333v-499.2zM128 448V725.333333h170.666667v-277.333333c0-46.933333 38.4-85.333333 85.333333-85.333333h362.666667v-170.666667H384c-140.8 0-256 115.2-256 256z"  horiz-adv-x="1024" />

    
    <glyph glyph-name="doughnut_chart" unicode="&#58922;" d="M512 256c-70.4 0-128 57.6-128 128s57.6 128 128 128V789.333333C288 789.333333 106.666667 608 106.666667 384s181.333333-405.333333 405.333333-405.333333c93.866667 0 181.333333 32 251.733333 87.466666l-170.666666 217.6c-23.466667-17.066667-51.2-27.733333-81.066667-27.733333zM640 384h277.333333c0 224-181.333333 405.333333-405.333333 405.333333v-277.333333c70.4 0 128-57.6 128-128zM917.333333 384H640c0-40.533333-19.2-76.8-49.066667-100.266667l170.666667-217.6C857.6 140.8 917.333333 256 917.333333 384z"  horiz-adv-x="1024" />

    
    <glyph glyph-name="generic_sorting_desc" unicode="&#58940;" d="M128 85.333333h85.333333v-85.333333H128zM128 256h256v-85.333333H128zM128 426.666667h426.666667v-85.333334H128zM128 597.333333h597.333333v-85.333333H128zM128 768h768v-85.333333H128z"  horiz-adv-x="1024" />

    
    <glyph glyph-name="genealogy" unicode="&#58940;" d="M853.333333 704V746.666667h-192v-106.666667H320v-234.666667H170.666667v-42.666666h149.333333v-234.666667h341.333333v-106.666667h192v42.666667h-149.333333v170.666667h149.333333v42.666666h-192v-106.666666H362.666667V597.333333h298.666666v-106.666666h192v42.666666h-149.333333V704zM85.333333 469.333333h170.666667v-170.666666H85.333333zM768 597.333333h170.666667v-170.666666h-170.666667zM768 810.666667h170.666667v-170.666667h-170.666667zM426.666667 704h170.666666v-170.666667h-170.666666zM426.666667 234.666667h170.666666v-170.666667h-170.666666zM768 128h170.666667v-170.666667h-170.666667zM768 341.333333h170.666667v-170.666666h-170.666667z"  horiz-adv-x="1024" />

    
    </font>
</defs>
</svg>
